<?xml version="1.0" encoding="UTF-8"?><svg id="Icons" xmlns="http://www.w3.org/2000/svg" viewBox="0 0 126.41 126.41"><defs><style>.cls-1,.cls-2,.cls-3,.cls-4{fill:none;}.cls-5{fill:#fff;}.cls-6{fill:#c6befe;}.cls-7{fill:#d7d7d7;}.cls-8{fill:#757575;}.cls-9{fill:#7855fa;}.cls-2{stroke:#131313;}.cls-2,.cls-3{stroke-linecap:round;stroke-linejoin:round;}.cls-2,.cls-3,.cls-4{stroke-width:1.609px;}.cls-3{stroke:#4b00aa;}.cls-4{stroke:#d7d7d7;stroke-miterlimit:10;}</style></defs><path class="cls-7" d="m44.681,71.987c-10.859,0-26.384,9.677-26.384,28.806,0,10.224,17.466,11.533,30.163,8.317,12.697-3.216,17.078-9.537,17.078-16.08,0-10.646-9.149-21.044-20.856-21.044Z"/><path class="cls-2" d="m44.681,71.987c-10.859,0-26.384,9.677-26.384,28.806,0,10.224,17.466,11.533,30.163,8.317,12.697-3.216,17.078-9.537,17.078-16.08,0-10.646-9.149-21.044-20.856-21.044Z"/><path class="cls-4" d="m35.979,108.947c-3.745,0-15.963-.588-15.963-8.153,0-17.674,14.324-27.087,24.665-27.087,11.277,0,19.137,10.184,19.137,19.325,0,6.815-5.457,11.799-15.781,14.413-3.826.969-8.109,1.503-12.059,1.503h0Z"/><circle class="cls-7" cx="42.424" cy="57.433" r="18.371"/><path class="cls-8" d="m54.21,46.948c-.863-.966-2.448-.015-1.962,1.185,1.566,3.865,2.045,9.521-3.779,15.345-5.824,5.824-11.479,5.345-15.344,3.779-1.2-.486-2.15,1.099-1.185,1.962,3.174,2.835,7.495,4.409,12.179,3.917,7.317-.768,13.241-6.692,14.009-14.009.491-4.683-1.082-9.005-3.918-12.179Z"/><circle class="cls-2" cx="42.424" cy="57.433" r="18.371"/><ellipse class="cls-5" cx="33.777" cy="48.785" rx="4.234" ry="2.617" transform="translate(-24.604 38.173) rotate(-45)"/><path class="cls-4" d="m42.424,74.085c-9.182,0-16.653-7.47-16.653-16.652s7.47-16.653,16.653-16.653,16.652,7.47,16.652,16.653-7.47,16.652-16.652,16.652Z"/><ellipse class="cls-5" cx="29.182" cy="85.935" rx="3.835" ry="2.371" transform="translate(-55.558 53.446) rotate(-50.267)"/><path class="cls-8" d="m62.959,93.031c0-5.957-3.494-12.374-9.133-15.854-1.491-.92-3.421.237-3.22,1.978.141,1.22.215,2.455.215,3.692,0,7.902-3.735,15.535-14.563,19.419-1.658.595-3.411,1.06-5.191,1.379-2.366.423-2.296,3.844.089,4.145,1.977.25,3.761.297,4.824.297,3.881,0,8.089-.524,11.848-1.476,6.903-1.748,15.132-5.523,15.132-13.58Z"/><path class="cls-9" d="m105.298,32.808l-28.973-16.728c-.704-.407-1.347-.43-1.84-.145l-.002-.003-5.492,3.171,4.519,5.035v27.189c0,.527.458,1.083.765.927l7.514-3.802c.335-.169.752-.126,1.183.123l14.231,8.216,4.444,7.992,5.492-3.171-.002-.003c.597-.344.976-1.14.976-2.274v-21.149c0-2.073-1.26-4.481-2.815-5.379Z"/><path class="cls-5" d="m105.298,32.808l-28.973-16.728c-.704-.407-1.347-.43-1.84-.145l-.002-.003-5.492,3.171,4.519,5.035v21.762l3.012,5.217,5.267-2.665c.335-.169.752-.126,1.183.123l.852.492,23.641-13.649c-.516-1.128-1.295-2.106-2.167-2.609Z"/><path class="cls-6" d="m99.806,35.978l-28.973-16.728c-1.555-.898-2.815.055-2.815,2.128v33.118c0,.527.458,1.082.765.927l7.514-3.802c.335-.169.752-.126,1.183.123l22.325,12.889c1.555.898,2.815-.055,2.815-2.128v-21.149c0-2.073-1.26-4.481-2.815-5.379Z"/><path class="cls-3" d="m107.269,35.021c-.018-.034-.038-.067-.056-.101-.052-.094-.104-.187-.16-.278-.026-.043-.053-.083-.079-.125-.051-.08-.102-.158-.155-.235-.031-.044-.062-.087-.094-.13-.052-.071-.104-.14-.158-.207-.034-.043-.069-.085-.104-.127-.054-.064-.109-.126-.165-.187-.036-.039-.073-.079-.11-.117-.058-.059-.116-.115-.176-.17-.037-.034-.074-.07-.111-.102-.065-.056-.131-.108-.198-.159-.033-.026-.066-.053-.099-.078-.101-.072-.203-.14-.306-.2l-28.973-16.728c-.704-.407-1.347-.43-1.84-.145l-.002-.003-5.492,3.171.002.003c-.597.344-.976,1.14-.976,2.274v33.118c0,.527.458,1.082.765.927l7.514-3.802c.335-.169.752-.126,1.183.123l22.325,12.89c.704.407,1.347.43,1.84.145l.002.003,5.492-3.171-.002-.003c.597-.344.976-1.14.976-2.274v-21.149c0-1.049-.324-2.184-.844-3.165Z"/><line class="cls-3" x1="79.688" y1="38.691" x2="90.95" y2="45.194"/><rect class="cls-1" x="14.94" y="14.94" width="96.531" height="96.531"/><rect class="cls-1" x="14.94" y="14.94" width="96.531" height="96.531"/></svg>