<?xml version="1.0" encoding="UTF-8"?><svg id="Icons" xmlns="http://www.w3.org/2000/svg" xmlns:xlink="http://www.w3.org/1999/xlink" viewBox="0 0 126.41 126.41"><defs><style>.cls-1,.cls-2,.cls-3,.cls-4,.cls-5,.cls-6{fill:none;}.cls-7{clip-path:url(#clippath);}.cls-8{fill:#fff;}.cls-9,.cls-10{fill:#c6befe;}.cls-11,.cls-12{fill:#d7d7d7;}.cls-13,.cls-14{fill:#131313;}.cls-15{fill:#757575;}.cls-16{fill:#7855fa;}.cls-14,.cls-12,.cls-10,.cls-2,.cls-3,.cls-4,.cls-5,.cls-6{stroke-linecap:round;stroke-linejoin:round;stroke-width:1.609px;}.cls-14,.cls-3{stroke:#131313;}.cls-12,.cls-4{stroke:#757575;}.cls-10,.cls-6{stroke:#7855fa;}.cls-2{stroke:#fff;}.cls-5{stroke:#4b00aa;}</style><clipPath id="clippath"><path class="cls-1" d="m94.168,74.609s-21.419-3.194-24.538-3.234c-3.12-.04-8.152-1.017-9.259.881-.544.932-.82,2.753-.961,4.363-.114.05-.23.107-.348.175-1.787,1.032-3.235,3.799-3.235,6.182,0,1.569.63,2.574,1.569,2.787l-.66,8.32,2.327-1.343v8.251s-3.826,5.792,8.403,7.126c12.229,1.334,26.703-1.935,26.703-1.935v-31.572Z"/></clipPath></defs><g><g><path class="cls-15" d="m32.242,67.327v37.063c0,.896.592,1.792,1.776,2.475l4.806,2.775c2.368,1.367,6.206,1.367,8.574,0l23.377-13.497c1.184-.684,1.776-1.579,1.776-2.475v-37.063l-40.308,10.722Z"/><path class="cls-11" d="m43.033,64.457l-10.791,2.87v37.063c0,.896.592,1.792,1.776,2.475l4.806,2.775c1.164.672,2.684,1.01,4.209,1.021v-46.204Z"/><g><path class="cls-8" d="m70.774,59.081l-23.377,13.497c-2.368,1.367-6.206,1.367-8.574,0l-4.806-2.775c-2.368-1.367-2.368-3.583,0-4.95l23.377-13.497c2.368-1.367,6.206-1.367,8.574,0l4.806,2.775c2.368,1.367,2.368,3.583,0,4.95Z"/><path class="cls-4" d="m70.774,59.081l-23.377,13.497c-2.368,1.367-6.206,1.367-8.574,0l-4.806-2.775c-2.368-1.367-2.368-3.583,0-4.95l23.377-13.497c2.368-1.367,6.206-1.367,8.574,0l4.806,2.775c2.368,1.367,2.368,3.583,0,4.95Z"/></g></g><path class="cls-14" d="m62.345,79.212c0-2.4-1.459-3.503-3.259-2.464-1.8,1.039-3.259,3.828-3.259,6.228,0,1.58.635,2.593,1.581,2.807l-.665,8.382,4.688-2.706-.665-7.614c.946-1.307,1.581-3.052,1.581-4.633Z"/><path class="cls-3" d="m70.774,54.13l-4.806-2.775c-2.368-1.367-6.206-1.367-8.574,0l-23.377,13.497c-1.184.683-1.776,1.579-1.776,2.475v37.063c0,.896.592,1.792,1.776,2.475l4.806,2.775c2.368,1.367,6.206,1.367,8.574,0l23.377-13.497c1.184-.684,1.776-1.579,1.776-2.475v-37.063c0-.896-.592-1.792-1.776-2.475Z"/><g><g><path class="cls-11" d="m80.178,16.976c-3.12-1.802-7.013-1.62-10.681.497-6.553,3.783-11.685,13.413-11.685,21.923v16.399h0c0,1.439,2.02,2.605,4.511,2.605s4.511-1.166,4.511-2.605v-.002s0-16.397,0-16.397c0-5.31,3.352-11.903,7.174-14.11.943-.544,1.535-.567,1.659-.497.328.189,1.004,1.347,1.004,3.719v16.398h0c0,1.439,2.02,2.606,4.511,2.606s4.511-1.166,4.511-2.605h0s0,0,0,0v-16.399c0-5.306-2.01-9.509-5.515-11.533Z"/><path class="cls-3" d="m80.178,16.976c-3.12-1.802-7.013-1.62-10.681.497-6.553,3.783-11.685,13.413-11.685,21.923v16.399h0c0,1.439,2.02,2.605,4.511,2.605s4.511-1.166,4.511-2.605v-.002s0-16.397,0-16.397c0-5.31,3.352-11.903,7.174-14.11.943-.544,1.535-.567,1.659-.497.328.189,1.004,1.347,1.004,3.719v16.398h0c0,1.439,2.02,2.606,4.511,2.606s4.511-1.166,4.511-2.605h0s0,0,0,0v-16.399c0-5.306-2.01-9.509-5.515-11.533Z"/><path class="cls-4" d="m82.924,22.675c.706,1.656,1.082,3.633,1.082,5.834v16.399c-.09.224-1.105.917-2.824.917"/><path class="cls-2" d="m59.494,54.07l.005-14.673c0-5.861,2.579-12.277,6.364-16.655"/><path class="cls-4" d="m66.912,31.618c-1.1,2.511-1.765,5.254-1.765,7.778v16.398c-.09.226-1.103.919-2.824.919"/><path class="cls-2" d="m78.353,43.182l.005-14.673c0-2.539-.709-4.524-1.85-5.181-.302-.171-.638-.254-1.012-.254-.673,0-1.479.26-2.331.751-.918.53-1.805,1.266-2.635,2.153"/></g><path class="cls-15" d="m39.246,66.682v-.002c0-1.345,1.889-2.436,4.218-2.436s4.219,1.09,4.219,2.436h0s0,0,0,0v.002c0,1.345-1.889,2.436-4.218,2.436s-4.219-1.09-4.219-2.436h0s0,0,0,0Z"/><path class="cls-3" d="m39.246,66.682v-.002c0-1.345,1.889-2.436,4.218-2.436s4.219,1.09,4.219,2.436h0s0,0,0,0v.002c0,1.345-1.889,2.436-4.218,2.436s-4.219-1.09-4.219-2.436h0s0,0,0,0Z"/><path class="cls-13" d="m43.464,66.681c-1.558,0-2.903.493-3.634,1.218.731.725,2.076,1.219,3.634,1.219s2.903-.493,3.634-1.218c-.731-.725-2.076-1.219-3.634-1.219Z"/></g></g><g class="cls-7"><g><g><g><path class="cls-12" d="m52.917,86.648c-.148-.256-.232-.553-.232-.869v-6.132c0-.962.779-1.741,1.741-1.741.961,0,1.741.779,1.741,1.741v6.132c0,.962-.779,1.741-1.741,1.741-.645,0-1.208-.351-1.509-.872Z"/><line class="cls-2" x1="53.789" y1="85.519" x2="53.789" y2="80.793"/></g><path class="cls-12" d="m46.586,85.977c-.148-.256-.232-.553-.232-.869v-9.77c0-.962.779-1.741,1.741-1.741.961,0,1.741.779,1.741,1.741v9.77c0,.962-.779,1.741-1.741,1.741-.645,0-1.208-.351-1.509-.872Z"/><line class="cls-2" x1="47.457" y1="84.848" x2="47.457" y2="76.485"/><path class="cls-11" d="m74.22,93.16c-.485,0-.977-.124-1.428-.384l-28.584-16.503c-1.369-.79-1.838-2.54-1.047-3.909.789-1.368,2.539-1.839,3.909-1.047l28.584,16.503c1.369.79,1.838,2.54,1.047,3.909-.53.918-1.492,1.431-2.481,1.431Z"/><path class="cls-8" d="m74.118,90.086c-.205,0-.412-.052-.602-.162l-27.376-15.805c-.577-.333-.775-1.071-.442-1.648.333-.577,1.071-.775,1.648-.442l27.376,15.805c.577.333.775,1.071.442,1.648-.223.387-.629.604-1.046.604Z"/><path class="cls-4" d="m75.411,93.848c-.485,0-.977-.124-1.428-.384l-29.774-17.19c-1.369-.79-1.838-2.54-1.047-3.909.789-1.368,2.539-1.839,3.909-1.047l29.774,17.19c1.369.79,1.838,2.54,1.047,3.909-.53.918-1.492,1.431-2.481,1.431Z"/></g><g><g><path class="cls-10" d="m52.917,86.648c-.148-.256-.232-.553-.232-.869v-6.132c0-.962.779-1.741,1.741-1.741.961,0,1.741.779,1.741,1.741v6.132c0,.962-.779,1.741-1.741,1.741-.645,0-1.208-.351-1.509-.872Z"/><line class="cls-2" x1="53.789" y1="85.519" x2="53.789" y2="80.793"/></g><path class="cls-10" d="m46.586,85.977c-.148-.256-.232-.553-.232-.869v-9.77c0-.962.779-1.741,1.741-1.741.961,0,1.741.779,1.741,1.741v9.77c0,.962-.779,1.741-1.741,1.741-.645,0-1.208-.351-1.509-.872Z"/><line class="cls-2" x1="47.457" y1="84.848" x2="47.457" y2="76.485"/><path class="cls-10" d="m74.22,93.16c-.485,0-.977-.124-1.428-.384l-28.584-16.503c-1.369-.79-1.838-2.54-1.047-3.909.789-1.368,2.539-1.839,3.909-1.047l28.584,16.503c1.369.79,1.838,2.54,1.047,3.909-.53.918-1.492,1.431-2.481,1.431Z"/><path class="cls-8" d="m74.118,90.086c-.205,0-.412-.052-.602-.162l-27.376-15.805c-.577-.333-.775-1.071-.442-1.648.333-.577,1.071-.775,1.648-.442l27.376,15.805c.577.333.775,1.071.442,1.648-.223.387-.629.604-1.046.604Z"/><path class="cls-6" d="m75.411,93.848c-.485,0-.977-.124-1.428-.384l-29.774-17.19c-1.369-.79-1.838-2.54-1.047-3.909.789-1.368,2.539-1.839,3.909-1.047l29.774,17.19c1.369.79,1.838,2.54,1.047,3.909-.53.918-1.492,1.431-2.481,1.431Z"/></g><g><path class="cls-8" d="m93.386,96.192c0-6.996-4.254-15.123-9.5-18.152-2.377-1.373-4.549-1.459-6.215-.497v-.004s-4.589,2.649-4.589,2.649l.88,1.346c-.441,1.206-.686,2.659-.686,4.33,0,6.996,4.253,15.123,9.5,18.152.772.446,1.522.753,2.241.936l.497,1.573,4.588-2.649-.002-.003c2.012-1.161,3.286-3.853,3.286-7.68Z"/><path class="cls-9" d="m93.386,96.192c0-5.073-2.238-10.739-5.468-14.627,1.21,1.457,2.281,3.164,3.147,4.997l-8.326,4.807c.693,1.466,1.115,3.097,1.115,4.618,0,3.356-2.04,4.898-4.557,3.445-1.376-.794-2.606-2.321-3.442-4.089l-.26.15c1.742,3.685,4.311,6.866,7.18,8.522.772.446,1.522.753,2.241.936l.497,1.573,4.588-2.649-.002-.003c2.012-1.161,3.286-3.853,3.286-7.68Z"/><path class="cls-10" d="m79.297,80.688c-5.247-3.029-9.5.186-9.5,7.182s4.253,15.123,9.5,18.152c5.247,3.029,9.5-.186,9.5-7.182s-4.253-15.123-9.5-18.152Z"/><path class="cls-16" d="m79.297,99.411c-2.508-1.448-4.542-5.333-4.542-8.677s2.033-4.882,4.542-3.433c2.508,1.448,4.542,5.333,4.542,8.677s-2.033,4.881-4.542,3.433Z"/></g><path class="cls-5" d="m91.889,102.142c.135-.203.264-.413.383-.64.003-.006.006-.013.009-.02.207-.399.384-.837.536-1.308.04-.124.078-.251.114-.38.293-1.049.454-2.254.454-3.602,0-.283-.009-.567-.023-.853-.004-.076-.008-.152-.013-.228-.015-.251-.035-.502-.06-.755-.004-.039-.006-.077-.01-.116-.03-.287-.068-.576-.111-.865-.011-.071-.022-.142-.034-.213-.039-.245-.082-.489-.129-.734-.011-.054-.02-.108-.031-.163-.059-.292-.124-.583-.194-.874-.014-.057-.029-.114-.043-.171-.063-.25-.129-.5-.2-.749-.017-.058-.032-.116-.049-.174-.086-.295-.178-.589-.275-.882-.01-.03-.021-.06-.031-.09-.09-.268-.186-.535-.286-.8-.02-.053-.04-.106-.06-.159-.225-.588-.472-1.167-.738-1.735-.021-.044-.041-.088-.062-.132-.273-.574-.566-1.135-.878-1.681-.018-.031-.036-.062-.054-.093-.319-.554-.657-1.09-1.011-1.605-.011-.017-.023-.033-.034-.049-.174-.252-.353-.499-.535-.74-.006-.008-.012-.016-.018-.024-.191-.253-.387-.5-.586-.74,0,0,0-.001-.002-.002,0,0,0,0,.001.001-1.225-1.474-2.591-2.694-4.034-3.527-2.377-1.373-4.549-1.459-6.215-.497v-.004s-4.589,2.649-4.589,2.649l.002.004c-1.386.8-2.421,2.328-2.93,4.453l-23.082-13.327c-1.369-.791-3.12-.321-3.909,1.047-.79,1.369-.321,3.119,1.047,3.909l2.144,1.238v7.596c0,.316.085.614.232.869.301.521.864.872,1.509.872.962,0,1.741-.779,1.741-1.741v-5.586s2.85,1.645,2.85,1.645v4.611c0,.316.084.614.232.869.301.521.864.872,1.509.872.962,0,1.741-.78,1.741-1.741v-2.601l13.931,8.043c1.057,6.069,4.775,12.248,9.199,14.802,2.377,1.373,4.549,1.459,6.215.497v.004s4.589-2.649,4.589-2.649h0l-.002-.004c.692-.399,1.294-.984,1.79-1.729Zm-.824-15.58h0v-.002s0,.002,0,.002Z"/></g></g><path class="cls-3" d="m60.818,76.412c-.502-.131-1.096-.031-1.732.336-1.8,1.039-3.259,3.828-3.259,6.228,0,1.58.635,2.593,1.581,2.807l-.665,8.382"/><rect class="cls-1" x="14.94" y="14.94" width="96.531" height="96.531"/><rect class="cls-1" x="14.94" y="14.94" width="96.531" height="96.531"/></svg>