<?xml version="1.0" encoding="UTF-8"?><svg id="Icons" xmlns="http://www.w3.org/2000/svg" viewBox="0 0 126.41 126.41"><defs><style>.cls-1,.cls-2{fill:none;}.cls-3{fill:#d7d7d7;}.cls-4{fill:#131313;}.cls-5{fill:#757575;}.cls-6{fill:#fff;stroke:#757575;}.cls-6,.cls-2{stroke-linecap:round;stroke-linejoin:round;stroke-width:1.609px;}.cls-2{stroke:#131313;}</style></defs><path class="cls-5" d="m73.684,46.287v-.23c0-1.188-1.668-2.151-3.726-2.151h-13.506c-2.058,0-3.726.963-3.726,2.151v.23H18.962v33.837h.004c0,.365.157.735.496,1.074l6.753,6.753c1.029,1.029,3.307,1.381,5.09.787l8.812-2.938c3.592,1.884,7.878,3.333,12.61,4.207v5.871c0,1.188,1.668,2.151,3.726,2.151h13.506c2.058,0,3.726-.963,3.726-2.151v-5.871c4.732-.874,9.018-2.324,12.61-4.207l8.812,2.938c1.782.594,4.061.241,5.09-.787l6.753-6.753c.339-.339.497-.709.496-1.074h.003v-33.837h-33.764Z"/><path class="cls-3" d="m86.293,85.8h0l8.812,2.938c.831.277,1.77.346,2.64.238v-30.765h-11.452v27.589Z"/><path class="cls-3" d="m19.462,81.197l6.753,6.753c.724.724,2.066,1.111,3.419,1.071v-42.735h-10.672v33.837h.004c0,.365.157.735.496,1.074Z"/><path class="cls-3" d="m40.117,85.8c3.592,1.884,7.878,3.333,12.61,4.207v-35.427h-12.61v31.219h0Z"/><ellipse class="cls-3" cx="63.205" cy="55.292" rx="15.524" ry="8.963"/><line class="cls-6" x1="40.117" y1="66.394" x2="40.117" y2="85.8"/><line class="cls-6" x1="52.726" y1="76.473" x2="52.726" y2="95.878"/><line class="cls-6" x1="73.684" y1="76.473" x2="73.684" y2="95.878"/><line class="cls-6" x1="86.293" y1="66.394" x2="86.293" y2="85.8"/><path class="cls-5" d="m47.681,55.292c0,4.95,6.95,8.963,15.524,8.963v-17.926c-8.574,0-15.524,4.013-15.524,8.963Z"/><path class="cls-4" d="m51.031,60.843c2.843,2.075,7.234,3.412,12.174,3.412s9.33-1.336,12.174-3.412c-2.843-2.076-7.234-3.412-12.174-3.412s-9.33,1.336-12.174,3.412Z"/><path class="cls-6" d="m105.585,62.433l-8.808-2.936c.507-1.355.776-2.762.776-4.204s-.269-2.849-.776-4.204l8.808-2.936c1.782-.594,2.393-1.91,1.364-2.938l-6.753-6.753c-1.029-1.029-3.307-1.381-5.09-.787l-8.812,2.937c-3.592-1.884-7.878-3.333-12.61-4.207v-5.871c0-1.188-1.668-2.151-3.726-2.151h-13.506c-2.058,0-3.726.963-3.726,2.151v5.871c-4.732.874-9.018,2.324-12.61,4.207l-8.812-2.937c-1.782-.594-4.061-.241-5.09.787l-6.753,6.753c-1.029,1.029-.418,2.344,1.364,2.938l8.808,2.936c-.507,1.355-.776,2.762-.776,4.204s.269,2.849.776,4.204l-8.808,2.936c-1.782.594-2.393,1.91-1.364,2.938l6.753,6.753c1.029,1.029,3.307,1.381,5.09.787l8.812-2.938c3.592,1.884,7.878,3.333,12.61,4.207v5.871c0,1.188,1.668,2.151,3.726,2.151h13.506c2.058,0,3.726-.963,3.726-2.151v-5.871c4.732-.874,9.018-2.324,12.61-4.207l8.812,2.938c1.782.594,4.061.241,5.09-.787l6.753-6.753c1.029-1.029.418-2.344-1.364-2.938Zm-42.38,1.822c-8.574,0-15.524-4.013-15.524-8.963s6.951-8.963,15.524-8.963,15.524,4.013,15.524,8.963-6.951,8.963-15.524,8.963Z"/><path class="cls-2" d="m107.448,46.287c0-.365-.161-.735-.5-1.074l-6.753-6.753c-1.029-1.029-3.307-1.381-5.09-.787l-8.812,2.937c-3.592-1.884-7.878-3.333-12.61-4.207v-5.871c0-1.188-1.668-2.151-3.726-2.151h-13.506c-2.058,0-3.726.963-3.726,2.151v5.871c-4.732.874-9.018,2.324-12.61,4.207l-8.812-2.937c-1.782-.594-4.061-.241-5.09.787l-6.753,6.753c-.257.257-.412.532-.472.81m44.215,18.232c-8.574,0-15.524-4.013-15.524-8.963s6.951-8.963,15.524-8.963,15.524,4.013,15.524,8.963-6.951,8.963-15.524,8.963Z"/><path class="cls-2" d="m18.962,46.287v33.837h.004c0,.365.157.735.496,1.074l6.753,6.753c1.029,1.029,3.307,1.381,5.09.787l8.812-2.938c3.592,1.884,7.878,3.333,12.61,4.207v5.871c0,1.188,1.668,2.151,3.726,2.151h13.506c2.058,0,3.726-.963,3.726-2.151v-5.871c4.732-.874,9.018-2.324,12.61-4.207l8.812,2.938c1.782.594,4.061.241,5.09-.787l6.753-6.753c.339-.339.497-.709.496-1.074h.003v-33.837"/><rect class="cls-1" x="14.94" y="14.94" width="96.531" height="96.531"/></svg>