<?xml version="1.0" encoding="UTF-8"?><svg id="Icons" xmlns="http://www.w3.org/2000/svg" viewBox="0 0 126.41 126.41"><defs><style>.cls-1,.cls-2,.cls-3,.cls-4,.cls-5{fill:none;}.cls-6{stroke:#7855fa;}.cls-6,.cls-7{fill:#7855fa;}.cls-6,.cls-2,.cls-3,.cls-4,.cls-5{stroke-linecap:round;stroke-linejoin:round;stroke-width:1.609px;}.cls-8{fill:#fff;}.cls-9{fill:#c6befe;}.cls-10{fill:#d7d7d7;}.cls-11{fill:#757575;}.cls-2,.cls-5{stroke:#131313;}.cls-3,.cls-4{stroke:#4b00aa;}.cls-4{stroke-dasharray:0 0 0 6.294;}.cls-5{stroke-dasharray:0 0 0 6.268;}</style></defs><g><g><line class="cls-3" x1="65.629" y1="18.094" x2="65.629" y2="18.094"/><path class="cls-4" d="m71.497,15.898c7.204-1.146,12.616,4.145,13.565,13.854"/><line class="cls-3" x1="85.21" y1="32.897" x2="85.21" y2="32.897"/></g><g><line class="cls-2" x1="41.393" y1="58.195" x2="41.393" y2="58.195"/><path class="cls-5" d="m41.903,51.954c1.826-11.507,8.362-23.322,16.463-29.437"/><line class="cls-2" x1="60.974" y1="20.781" x2="60.974" y2="20.781"/></g><g><path class="cls-10" d="m39.157,80.737c8.403,0,20.416,7.488,20.416,22.29,0,7.911-13.515,8.924-23.34,6.436-9.825-2.488-13.214-7.379-13.214-12.442,0-8.238,7.079-16.283,16.138-16.283Z"/><path class="cls-11" d="m46.537,108.046c0,1.454,1.257,2.6,2.704,2.449,5.759-.602,10.333-2.867,10.333-7.468,0-2.65-.386-5.065-1.068-7.244-.797-2.548-3.172-4.271-5.842-4.271h0c-3.384,0-6.127,2.743-6.127,6.127v10.408Z"/><path class="cls-2" d="m39.157,80.737c8.403,0,20.416,7.488,20.416,22.29,0,7.911-13.515,8.924-23.34,6.436-9.825-2.488-13.214-7.379-13.214-12.442,0-8.238,7.079-16.283,16.138-16.283Z"/><g><circle class="cls-10" cx="41.393" cy="70.388" r="14.215"/><path class="cls-11" d="m41.393,56.173c-7.851,0-14.215,6.364-14.215,14.215s6.364,14.215,14.215,14.215,14.215-6.364,14.215-14.215-6.364-14.215-14.215-14.215Zm4.677,18.893c-4.486,4.486-11.42,4.825-15.487.758-4.067-4.067-3.728-11.001.758-15.487,4.486-4.486,11.42-4.825,15.487-.758,4.067,4.067,3.728,11.001-.758,15.487Z"/><circle class="cls-2" cx="41.393" cy="70.388" r="14.215"/><ellipse class="cls-8" cx="34.943" cy="63.938" rx="3.828" ry="2.367" transform="translate(-34.977 43.436) rotate(-45)"/></g><ellipse class="cls-8" cx="30.042" cy="89.285" rx="2.967" ry="1.834" transform="translate(-54.335 47.394) rotate(-45)"/></g><g><path class="cls-9" d="m82.975,55.439c8.403,0,20.416,7.488,20.416,22.29,0,7.911-13.515,8.924-23.34,6.436-9.825-2.488-13.214-7.379-13.214-12.442,0-8.238,7.079-16.283,16.138-16.283Z"/><path class="cls-6" d="m90.354,82.748c0,1.454,1.257,2.6,2.704,2.449,5.759-.602,10.333-2.867,10.333-7.468,0-2.65-.386-5.065-1.068-7.244-.797-2.548-3.172-4.271-5.842-4.271h0c-3.384,0-6.127,2.743-6.127,6.127v10.408Z"/><path class="cls-3" d="m82.975,55.439c8.403,0,20.416,7.488,20.416,22.29,0,7.911-13.515,8.924-23.34,6.436-9.825-2.488-13.214-7.379-13.214-12.442,0-8.238,7.079-16.283,16.138-16.283Z"/><g><circle class="cls-9" cx="85.21" cy="45.09" r="14.215"/><path class="cls-7" d="m85.21,30.875c-7.851,0-14.215,6.364-14.215,14.215s6.364,14.215,14.215,14.215,14.215-6.364,14.215-14.215-6.364-14.215-14.215-14.215Zm4.677,18.893c-4.486,4.486-11.42,4.825-15.487.758-4.067-4.067-3.728-11.001.758-15.487,4.486-4.486,11.42-4.825,15.487-.758,4.067,4.067,3.728,11.001-.758,15.487Z"/><circle class="cls-3" cx="85.21" cy="45.09" r="14.215"/><ellipse class="cls-8" cx="78.761" cy="38.64" rx="3.828" ry="2.367" transform="translate(-4.254 67.01) rotate(-45)"/></g><ellipse class="cls-8" cx="73.86" cy="63.987" rx="2.967" ry="1.834" transform="translate(-23.613 70.968) rotate(-45)"/></g></g><g><line class="cls-3" x1="65.629" y1="18.094" x2="65.629" y2="18.094"/><path class="cls-4" d="m71.497,15.898c7.204-1.146,12.616,4.145,13.565,13.854"/><line class="cls-3" x1="85.21" y1="32.897" x2="85.21" y2="32.897"/></g><g><line class="cls-2" x1="41.393" y1="58.195" x2="41.393" y2="58.195"/><path class="cls-5" d="m41.903,51.954c1.826-11.507,8.362-23.322,16.463-29.437"/><line class="cls-2" x1="60.974" y1="20.781" x2="60.974" y2="20.781"/></g><path class="cls-10" d="m39.157,80.737c8.403,0,20.416,7.488,20.416,22.29,0,7.911-13.515,8.924-23.34,6.436-9.825-2.488-13.214-7.379-13.214-12.442,0-8.238,7.079-16.283,16.138-16.283Z"/><path class="cls-11" d="m46.537,108.046c0,1.454,1.257,2.6,2.704,2.449,5.759-.602,10.333-2.867,10.333-7.468,0-2.65-.386-5.065-1.068-7.244-.797-2.548-3.172-4.271-5.842-4.271h0c-3.384,0-6.127,2.743-6.127,6.127v10.408Z"/><path class="cls-2" d="m39.157,80.737c8.403,0,20.416,7.488,20.416,22.29,0,7.911-13.515,8.924-23.34,6.436-9.825-2.488-13.214-7.379-13.214-12.442,0-8.238,7.079-16.283,16.138-16.283Z"/><g><circle class="cls-10" cx="41.393" cy="70.388" r="14.215"/><path class="cls-11" d="m41.393,56.173c-7.851,0-14.215,6.364-14.215,14.215s6.364,14.215,14.215,14.215,14.215-6.364,14.215-14.215-6.364-14.215-14.215-14.215Zm4.677,18.893c-4.486,4.486-11.42,4.825-15.487.758-4.067-4.067-3.728-11.001.758-15.487,4.486-4.486,11.42-4.825,15.487-.758,4.067,4.067,3.728,11.001-.758,15.487Z"/><circle class="cls-2" cx="41.393" cy="70.388" r="14.215"/><ellipse class="cls-8" cx="34.943" cy="63.938" rx="3.828" ry="2.367" transform="translate(-34.977 43.436) rotate(-45)"/></g><ellipse class="cls-8" cx="30.042" cy="89.285" rx="2.967" ry="1.834" transform="translate(-54.335 47.394) rotate(-45)"/><path class="cls-9" d="m82.975,55.439c8.403,0,20.416,7.488,20.416,22.29,0,7.911-13.515,8.924-23.34,6.436-9.825-2.488-13.214-7.379-13.214-12.442,0-8.238,7.079-16.283,16.138-16.283Z"/><path class="cls-6" d="m90.354,82.748c0,1.454,1.257,2.6,2.704,2.449,5.759-.602,10.333-2.867,10.333-7.468,0-2.65-.386-5.065-1.068-7.244-.797-2.548-3.172-4.271-5.842-4.271h0c-3.384,0-6.127,2.743-6.127,6.127v10.408Z"/><path class="cls-3" d="m82.975,55.439c8.403,0,20.416,7.488,20.416,22.29,0,7.911-13.515,8.924-23.34,6.436-9.825-2.488-13.214-7.379-13.214-12.442,0-8.238,7.079-16.283,16.138-16.283Z"/><g><circle class="cls-9" cx="85.21" cy="45.09" r="14.215"/><path class="cls-7" d="m85.21,30.875c-7.851,0-14.215,6.364-14.215,14.215s6.364,14.215,14.215,14.215,14.215-6.364,14.215-14.215-6.364-14.215-14.215-14.215Zm4.677,18.893c-4.486,4.486-11.42,4.825-15.487.758-4.067-4.067-3.728-11.001.758-15.487,4.486-4.486,11.42-4.825,15.487-.758,4.067,4.067,3.728,11.001-.758,15.487Z"/><circle class="cls-3" cx="85.21" cy="45.09" r="14.215"/><ellipse class="cls-8" cx="78.761" cy="38.64" rx="3.828" ry="2.367" transform="translate(-4.254 67.01) rotate(-45)"/></g><ellipse class="cls-8" cx="73.86" cy="63.987" rx="2.967" ry="1.834" transform="translate(-23.613 70.968) rotate(-45)"/><rect class="cls-1" x="14.94" y="14.94" width="96.531" height="96.531"/><rect class="cls-1" x="14.94" y="14.94" width="96.531" height="96.531"/></svg>