<?xml version="1.0" encoding="UTF-8"?><svg id="Icons" xmlns="http://www.w3.org/2000/svg" viewBox="0 0 126.41 126.41"><defs><style>.cls-1,.cls-2,.cls-3,.cls-4,.cls-5,.cls-6{fill:none;}.cls-7{fill:#7855fa;}.cls-7,.cls-8,.cls-9,.cls-10,.cls-2{stroke:#fff;}.cls-7,.cls-8,.cls-9,.cls-10,.cls-2,.cls-3,.cls-4,.cls-5,.cls-6{stroke-linecap:round;stroke-linejoin:round;stroke-width:1.609px;}.cls-8{fill:#757575;}.cls-9{fill:#c6befe;}.cls-10{fill:#d7d7d7;}.cls-3,.cls-5{stroke:#131313;}.cls-4,.cls-6{stroke:#4b00aa;}.cls-5,.cls-6{stroke-dasharray:0 0 0 4.594;}</style></defs><g><g><line class="cls-4" x1="74.111" y1="30.285" x2="74.111" y2="30.285"/><line class="cls-6" x1="74.111" y1="34.879" x2="74.111" y2="46.364"/><line class="cls-4" x1="74.111" y1="48.661" x2="74.111" y2="48.661"/></g><g><line class="cls-3" x1="52.299" y1="30.285" x2="52.299" y2="30.285"/><line class="cls-5" x1="52.299" y1="34.879" x2="52.299" y2="46.364"/><line class="cls-3" x1="52.299" y1="48.661" x2="52.299" y2="48.661"/></g><polygon class="cls-8" points="74.111 48.661 63.205 54.957 63.205 110.666 103.267 87.536 74.111 48.661"/><polygon class="cls-10" points="52.299 48.661 63.205 54.957 63.205 110.666 23.143 87.536 52.299 48.661"/><polygon class="cls-10" points="52.299 48.661 63.205 42.364 74.111 48.661 63.205 54.957 52.299 48.661"/><polygon class="cls-7" points="63.205 15.744 63.205 36.582 74.111 30.285 63.205 15.744"/><polygon class="cls-9" points="63.205 15.744 63.205 36.582 52.299 30.285 63.205 15.744"/><polygon class="cls-4" points="63.205 15.744 52.299 30.285 63.205 36.582 74.111 30.285 63.205 15.744"/></g><line class="cls-2" x1="103.267" y1="87.536" x2="63.205" y2="64.406"/><line class="cls-2" x1="23.143" y1="87.536" x2="63.205" y2="64.406"/><polygon class="cls-3" points="74.111 48.661 63.205 42.364 52.299 48.661 23.143 87.536 63.205 110.666 103.267 87.536 74.111 48.661"/><rect class="cls-1" x="14.94" y="14.94" width="96.531" height="96.531"/></svg>