<?xml version="1.0" encoding="UTF-8"?><svg id="Icons" xmlns="http://www.w3.org/2000/svg" viewBox="0 0 126.41 126.41"><defs><style>.cls-1,.cls-2,.cls-3,.cls-4{fill:none;}.cls-5,.cls-6,.cls-7,.cls-8,.cls-9,.cls-10,.cls-2,.cls-3,.cls-4{stroke-width:1.609px;}.cls-5,.cls-6,.cls-7,.cls-8,.cls-9,.cls-2,.cls-3,.cls-4{stroke-linecap:round;stroke-linejoin:round;}.cls-5,.cls-6,.cls-11{fill:#757575;}.cls-5,.cls-8,.cls-2{stroke:#131313;}.cls-6,.cls-9{stroke:#757575;}.cls-7{stroke:#7855fa;}.cls-7,.cls-12{fill:#7855fa;}.cls-13,.cls-9{fill:#fff;}.cls-14,.cls-10{fill:#c6befe;}.cls-15{fill:#d7d7d7;}.cls-8{fill:#131313;}.cls-10{stroke:#fff;stroke-miterlimit:10;}.cls-3,.cls-4{stroke:#4b00aa;}.cls-4{stroke-dasharray:0 0 0 2.774;}</style></defs><path class="cls-9" d="m90.938,19.702l-6.312-3.644-.003.005c-.161-.093-.368-.089-.597.043l-53.099,30.657c-.507.292-.917,1.077-.917,1.753v51.522c0,.37.126.625.321.737l-.004.005,6.312,3.644,5.305-10.053,42.082-28.436c.507-.292.917-1.077.917-1.753V27.693l5.995-7.991Z"/><path class="cls-15" d="m36.322,104.241v-60.593l-5.395,3.115c-.507.292-.917,1.077-.917,1.753v51.522c0,.37.126.625.321.737l-.004.005,5.995,3.461Z"/><path class="cls-5" d="m65.742,76.492l18.284-10.557c.507-.292.917-1.077.917-1.753V27.693l5.995-7.991-6.312-3.644-.003.005c-.161-.093-.368-.089-.597.043l-53.099,30.657c-.507.292-.917,1.077-.917,1.753v7.346l35.732,20.63Z"/><path class="cls-15" d="m67.445,70.129l17.498-24.426v-18.011l5.995-7.991-6.312-3.644-.003.005c-.161-.093-.368-.089-.597.043l-53.099,30.657c-.507.292-.917,1.077-.917,1.753h0s37.435,21.613,37.435,21.613Z"/><path class="cls-9" d="m90.338,73.719l-53.099,30.657c-.507.292-.917-.018-.917-.693v-51.522c0-.675.411-1.46.917-1.753l53.099-30.657c.507-.292.917.018.917.693v51.522c0,.675-.411,1.46-.917,1.753Z"/><path class="cls-2" d="m90.935,19.707l.004-.005-6.312-3.644-.003.005c-.161-.093-.368-.089-.597.043l-53.099,30.657c-.507.292-.917,1.077-.917,1.753v51.522c0,.37.126.625.321.737l-.004.005,6.312,3.644.003-.005c.161.093.368.089.597-.043l53.099-30.657c.507-.292.917-1.077.917-1.753V20.444c0-.37-.126-.625-.321-.737Z"/><path class="cls-8" d="m91.255,27.79v-7.346c0-.675-.411-.986-.917-.693l-53.099,30.657c-.507.292-.917,1.077-.917,1.753v7.346l54.934-31.716Z"/><g><ellipse class="cls-15" cx="44.726" cy="50.579" rx="1.589" ry=".899" transform="translate(-19.328 71.93) rotate(-66.949)"/><ellipse class="cls-13" cx="48.717" cy="48.275" rx="1.589" ry=".899" transform="translate(-14.779 74.2) rotate(-66.949)"/><ellipse class="cls-11" cx="40.573" cy="52.977" rx="1.589" ry=".899" transform="translate(-24.06 69.568) rotate(-66.949)"/></g><path class="cls-6" d="m71.519,60.714c0-.769-.068-1.476-.188-2.128l2.543-3.426-2.319-4.017-2.548,3.433c-.824-.532-1.807-.745-2.9-.572v-3.909s-4.638,2.678-4.638,2.678v3.909c-1.093,1.089-2.076,2.437-2.9,3.92l-2.548-.49-2.319,6.695,2.543.49c-.12.79-.188,1.575-.188,2.344,0,.769.068,1.476.188,2.128l-2.543,3.426,2.319,4.017,2.548-3.433c.824.532,1.807.745,2.9.572v3.909s4.638-2.678,4.638-2.678v-3.909c1.093-1.089,2.076-2.437,2.9-3.92l2.548.49,2.319-6.695-2.543-.489c.12-.79.188-1.576.188-2.344Zm-7.731,9.826c-2.221,1.283-4.022-.079-4.022-3.041,0-2.962,1.801-6.402,4.022-7.685,2.221-1.283,4.022.079,4.022,3.041s-1.801,6.402-4.022,7.685Z"/><g><path class="cls-7" d="m68.875,96.281v6.183c0,2.034,1.344,4.067,4.031,5.619,5.375,3.103,14.089,3.103,19.463,0,2.687-1.552,4.031-3.585,4.031-5.619h0v-6.183h-27.525Z"/><path class="cls-14" d="m68.875,96.281v6.183c0,2.034,1.344,4.067,4.031,5.619,2.687,1.552,6.21,2.327,9.732,2.327v-14.129h-13.763Z"/><ellipse class="cls-10" cx="82.637" cy="96.281" rx="13.763" ry="7.946"/><ellipse class="cls-12" cx="82.637" cy="96.281" rx="9.578" ry="5.117"/><path class="cls-3" d="m96.4,96.281c0-2.034-1.344-4.067-4.031-5.619-5.375-3.103-14.089-3.103-19.463,0-2.688,1.552-4.031,3.586-4.031,5.619v6.182c0,2.034,1.344,4.067,4.031,5.619,5.375,3.103,14.089,3.103,19.463,0,2.687-1.552,4.031-3.585,4.031-5.619h0v-6.183h0Z"/><g><line class="cls-3" x1="87.174" y1="106.866" x2="87.174" y2="106.866"/><path class="cls-4" d="m89.85,106.132c.441-.157.871-.33,1.285-.518"/><line class="cls-3" x1="92.369" y1="104.981" x2="92.369" y2="104.981"/></g></g><g><path class="cls-7" d="m68.875,88.574v6.183c0,2.034,1.344,4.067,4.031,5.619,5.375,3.103,14.089,3.103,19.463,0,2.687-1.552,4.031-3.585,4.031-5.619h0v-6.183h-27.525Z"/><path class="cls-14" d="m68.875,88.574v6.183c0,2.034,1.344,4.067,4.031,5.619,2.687,1.552,6.21,2.327,9.732,2.327v-14.129h-13.763Z"/><ellipse class="cls-10" cx="82.637" cy="88.574" rx="13.763" ry="7.946"/><ellipse class="cls-12" cx="82.637" cy="88.574" rx="9.578" ry="5.117"/><path class="cls-3" d="m96.4,88.574c0-2.034-1.344-4.067-4.031-5.619-5.375-3.103-14.089-3.103-19.463,0-2.688,1.552-4.031,3.586-4.031,5.619v6.182c0,2.034,1.344,4.067,4.031,5.619,5.375,3.103,14.089,3.103,19.463,0,2.687-1.552,4.031-3.585,4.031-5.619h0v-6.183h0Z"/><g><line class="cls-3" x1="87.174" y1="99.159" x2="87.174" y2="99.159"/><path class="cls-4" d="m89.85,98.424c.441-.157.871-.33,1.285-.518"/><line class="cls-3" x1="92.369" y1="97.273" x2="92.369" y2="97.273"/></g></g><g><path class="cls-7" d="m68.875,80.867v6.183c0,2.034,1.344,4.067,4.031,5.619,5.375,3.103,14.089,3.103,19.463,0,2.687-1.552,4.031-3.585,4.031-5.619h0v-6.183h-27.525Z"/><path class="cls-14" d="m68.875,80.867v6.183c0,2.034,1.344,4.067,4.031,5.619,2.687,1.552,6.21,2.327,9.732,2.327v-14.129h-13.763Z"/><ellipse class="cls-10" cx="82.637" cy="80.867" rx="13.763" ry="7.946"/><ellipse class="cls-12" cx="82.637" cy="80.867" rx="9.578" ry="5.117"/><path class="cls-3" d="m96.4,80.867c0-2.034-1.344-4.067-4.031-5.619-5.375-3.103-14.089-3.103-19.463,0-2.688,1.552-4.031,3.586-4.031,5.619v6.182c0,2.034,1.344,4.067,4.031,5.619,5.375,3.103,14.089,3.103,19.463,0,2.687-1.552,4.031-3.585,4.031-5.619h0v-6.183h0Z"/><g><line class="cls-3" x1="87.174" y1="91.451" x2="87.174" y2="91.451"/><path class="cls-4" d="m89.85,90.717c.441-.157.871-.33,1.285-.518"/><line class="cls-3" x1="92.369" y1="89.566" x2="92.369" y2="89.566"/></g></g><rect class="cls-1" x="14.94" y="14.94" width="96.531" height="96.531"/></svg>