<?xml version="1.0" encoding="UTF-8"?><svg id="Icons" xmlns="http://www.w3.org/2000/svg" viewBox="0 0 126.41 126.41"><defs><style>.cls-1,.cls-2,.cls-3{fill:none;}.cls-4,.cls-5,.cls-6{fill:#fff;}.cls-7,.cls-8{fill:#d7d7d7;}.cls-9{fill:#131313;}.cls-10,.cls-11{fill:#757575;}.cls-11,.cls-5,.cls-6,.cls-8,.cls-2{stroke-linecap:round;stroke-linejoin:round;}.cls-11,.cls-5,.cls-6,.cls-8,.cls-2,.cls-3{stroke-width:1.609px;}.cls-11,.cls-8{stroke:#fff;}.cls-5,.cls-12{stroke:#7855fa;}.cls-6{stroke:#757575;}.cls-12{fill:#7855fa;stroke-width:.402px;}.cls-12,.cls-3{stroke-miterlimit:10;}.cls-2{stroke:#131313;}.cls-3{stroke:#d7d7d7;}</style></defs><path class="cls-7" d="m50.061,54.972c-11.045,0-26.835,9.842-26.835,29.298,0,10.398,17.764,11.73,30.678,8.459,12.914-3.271,17.369-9.7,17.369-16.354,0-10.828-9.305-21.403-21.213-21.403Z"/><path class="cls-2" d="m50.061,54.972c-11.045,0-26.835,9.842-26.835,29.298,0,10.398,17.764,11.73,30.678,8.459,12.914-3.271,17.369-9.7,17.369-16.354,0-10.828-9.305-21.403-21.213-21.403Z"/><path class="cls-3" d="m41.21,92.563c-3.809,0-16.235-.598-16.235-8.293,0-17.976,14.569-27.55,25.086-27.55,11.47,0,19.464,10.358,19.464,19.655,0,6.931-5.55,12-16.05,14.659-3.891.986-8.247,1.529-12.265,1.529h0Z"/><circle class="cls-7" cx="47.765" cy="40.169" r="18.685"/><path class="cls-10" d="m59.752,29.505c-.877-.982-2.49-.016-1.995,1.205,1.593,3.931,2.08,9.683-3.843,15.607-5.923,5.923-11.675,5.436-15.606,3.844-1.221-.494-2.187,1.118-1.205,1.995,3.229,2.884,7.623,4.484,12.386,3.984,7.442-.781,13.467-6.806,14.248-14.248.5-4.763-1.101-9.159-3.985-12.387Z"/><circle class="cls-2" cx="47.765" cy="40.169" r="18.685"/><ellipse class="cls-4" cx="38.971" cy="31.374" rx="4.306" ry="2.662" transform="translate(-10.771 36.746) rotate(-45)"/><path class="cls-3" d="m47.766,57.106c-9.339,0-16.937-7.598-16.937-16.937s7.598-16.937,16.937-16.937,16.936,7.598,16.936,16.937-7.598,16.937-16.936,16.937Z"/><ellipse class="cls-4" cx="34.298" cy="69.159" rx="3.9" ry="2.411" transform="translate(-40.811 51.327) rotate(-50.267)"/><path class="cls-10" d="m68.651,76.375c0-6.059-3.554-12.586-9.289-16.125-1.517-.936-3.48.241-3.275,2.012.144,1.241.219,2.496.219,3.755,0,8.037-3.799,15.801-14.812,19.751-1.686.605-3.469,1.079-5.28,1.402-2.407.43-2.335,3.91.09,4.216,2.011.254,3.825.302,4.906.302,3.947,0,8.227-.533,12.051-1.502,7.021-1.778,15.39-5.618,15.39-13.812Z"/><g><path class="cls-10" d="m83.638,59.743l-2.618-1.512-.003.009c-.26-.15-.594-.145-.965.069l-14.937,8.624c-.817.472-1.479,1.737-1.479,2.826v27.833c0,.596.202,1.006.515,1.187l-.004.009,2.618,1.512,1.002-3.121,12.284-7.092c.817-.472,1.479-1.737,1.479-2.826v-23.044l2.107-4.474Z"/><path class="cls-10" d="m71.425,69.188l-.268-3.724c-.073-1.015-.687-2.11-1.42-2.534h0c-.733-.423-1.347-.037-1.42.893l-.268,3.414"/><path class="cls-2" d="m71.425,69.188l-.268-3.724c-.073-1.015-.687-2.11-1.42-2.534h0c-.733-.423-1.347-.037-1.42.893l-.268,3.414"/><path class="cls-7" d="m81.017,58.241c-.26-.15-.594-.145-.965.069l-14.937,8.624c-.392.227-.747.638-1.011,1.124l17.427,10.062v-13.901l2.107-4.474-2.618-1.512-.003.009Z"/><path class="cls-6" d="m82.671,91.599l-14.937,8.624c-.817.472-1.479-.029-1.479-1.118v-27.833c0-1.089.662-2.354,1.479-2.826l14.937-8.624c.817-.472,1.479.029,1.479,1.118v27.833c0,1.089-.662,2.354-1.479,2.826Z"/><path class="cls-2" d="m83.634,59.752l.004-.009-2.618-1.512-.003.009c-.26-.15-.594-.145-.965.069l-14.937,8.624c-.099.057-.196.127-.29.206-.073.061-.141.133-.209.205-.019.02-.039.036-.057.056-.171.191-.324.414-.456.656h0c-.286.525-.468,1.136-.468,1.702v27.833c0,.596.202,1.006.515,1.187l-.004.009,2.618,1.512.003-.009c.26.15.594.145.965-.069l14.937-8.624c.817-.472,1.479-1.737,1.479-2.826v-27.833c0-.596-.202-1.006-.515-1.187Z"/><g><path class="cls-7" d="m78.741,61.086c-.073-1.015-.687-2.11-1.42-2.534-.356-.205-.683-.22-.934-.075h0s-7.584,4.378-7.584,4.378v.004c.253-.145.579-.134.934.072.733.423,1.347,1.519,1.42,2.534l.268,3.724,7.584-4.379-.269-3.724Z"/><path class="cls-4" d="m69.736,62.93c.48.277.906.844,1.165,1.487l7.586-4.38c-.26-.642-.687-1.208-1.168-1.485-.356-.205-.683-.22-.934-.075h0s-7.584,4.378-7.584,4.378v.004c.253-.145.579-.134.934.072Z"/><path class="cls-2" d="m78.741,61.086c-.073-1.015-.687-2.11-1.42-2.534-.356-.205-.683-.22-.934-.075h0s-7.584,4.378-7.584,4.378h0s-.006.006-.009.008c.253-.151.583-.141.943.067.733.423,1.347,1.519,1.42,2.534l.268,3.724,7.584-4.379-.269-3.724Z"/><path class="cls-4" d="m73.528,60.741l1.262-.729c.05-.216.079-.434.079-.645,0-.988-.6-1.442-1.341-1.014-.741.428-1.341,1.575-1.341,2.563,0,.21.027.396.077.554l1.264-.73Z"/><ellipse class="cls-9" cx="73.528" cy="60.142" rx=".627" ry=".355" transform="translate(-10.602 104.251) rotate(-66.949)"/><path class="cls-2" d="m74.791,60.012c.05-.216.079-.434.079-.645,0-.988-.6-1.442-1.341-1.014-.741.428-1.341,1.575-1.341,2.563,0,.21.027.396.077.554"/></g></g><g><line class="cls-5" x1="75.091" y1="74.458" x2="81.114" y2="70.981"/><path class="cls-12" d="m70.56,84.637c-.073.042-.147.047-.203.005l-.877-.648c-.112-.085-.196-.376-.084-.59s.378-.271.49-.186l.577.421,1.9-3.676c.112-.214.327-.286.439-.201s.177.368.065.582l-2.103,4.063c-.056.107-.13.187-.203.229Z"/><path class="cls-12" d="m70.56,78.314c-.073.042-.147.047-.203.005l-.877-.648c-.112-.085-.196-.376-.084-.59s.378-.271.49-.186l.577.421,1.9-3.676c.112-.214.327-.286.439-.201s.177.368.065.582l-2.103,4.063c-.056.107-.13.187-.203.229Z"/><line class="cls-5" x1="75.091" y1="80.782" x2="81.114" y2="77.305"/><line class="cls-5" x1="75.091" y1="87.106" x2="81.114" y2="83.629"/><path class="cls-12" d="m70.56,90.961c-.073.042-.147.047-.203.005l-.877-.648c-.112-.085-.196-.376-.084-.59s.378-.271.49-.186l.577.421,1.9-3.676c.112-.214.327-.286.439-.201s.177.368.065.582l-2.103,4.063c-.056.107-.13.187-.203.229Z"/></g><g><polygon class="cls-11" points="91.736 85.024 80.727 83.401 80.405 100.288 83.825 95.682 87.873 102.695 92.365 96.644 88.316 89.631 91.736 85.024"/><polygon class="cls-11" points="94.919 86.862 83.911 85.239 83.589 102.126 87.008 97.52 91.057 104.533 95.549 98.482 91.5 91.469 94.919 86.862"/><polygon class="cls-8" points="91.057 104.533 87.873 102.695 85.814 99.128 87.008 97.52 91.057 104.533"/><polygon class="cls-8" points="83.589 102.126 80.405 100.288 80.727 83.401 83.911 85.239 83.589 102.126"/><polygon class="cls-8" points="94.919 86.862 91.736 85.024 80.727 83.401 83.911 85.239 94.919 86.862"/><polygon class="cls-2" points="91.5 91.469 94.919 86.862 91.736 85.024 80.727 83.401 80.405 100.289 83.589 102.126 85.814 99.128 85.814 99.128 85.814 99.128 87.873 102.695 91.057 104.533 95.549 98.481 91.5 91.469"/></g><rect class="cls-1" x="56.002" y="57.744" width="47.182" height="47.182"/><rect class="cls-1" x="56.002" y="57.744" width="47.182" height="47.182"/></svg>