<?xml version="1.0" encoding="UTF-8"?><svg id="Icons" xmlns="http://www.w3.org/2000/svg" viewBox="0 0 126.41 126.41"><defs><style>.cls-1,.cls-2,.cls-3,.cls-4,.cls-5,.cls-6{fill:none;}.cls-7,.cls-8{fill:#757575;}.cls-7,.cls-9,.cls-10,.cls-11,.cls-2,.cls-3,.cls-4,.cls-5,.cls-6{stroke-linecap:round;stroke-linejoin:round;stroke-width:1.609px;}.cls-7,.cls-9,.cls-11,.cls-3{stroke:#757575;}.cls-12,.cls-10,.cls-11{fill:#fff;}.cls-13{fill:#c6befe;}.cls-14{fill:#7855fa;}.cls-9{fill:#d7d7d7;}.cls-10,.cls-5{stroke:#7855fa;}.cls-2{stroke:#131313;}.cls-4{stroke:#4b00aa;}.cls-6{stroke:#c6befe;}</style></defs><g><polygon class="cls-14" points="88.806 48.198 88.806 55.114 60.484 71.466 60.484 64.55 88.806 48.198"/><polygon class="cls-13" points="30.582 47.286 30.582 54.203 60.484 71.466 60.484 64.55 30.582 47.286"/><g><polygon class="cls-12" points="60.484 64.55 30.582 47.286 58.905 30.934 88.806 48.198 60.484 64.55"/><polygon class="cls-5" points="60.484 64.55 30.582 47.286 58.905 30.934 88.806 48.198 60.484 64.55"/></g><polygon class="cls-13" points="54.864 61.305 83.186 44.953 62.466 32.99 34.143 49.342 54.864 61.305"/><polygon class="cls-5" points="60.484 64.55 30.582 47.286 58.905 30.934 88.806 48.198 60.484 64.55"/></g><polyline class="cls-5" points="30.582 52.594 60.484 69.857 88.806 53.505"/><polyline class="cls-6" points="30.582 48.974 60.484 66.237 88.806 49.885"/><polygon class="cls-4" points="58.905 30.934 30.582 47.286 30.582 54.203 60.483 71.466 88.806 55.114 88.806 48.198 58.905 30.934"/><path class="cls-10" d="m70.442,37.595c3.988,2.303,9.719,3.635,15.127,2.575l-28.322,16.352c-5.408,1.061-11.138-.272-15.127-2.575l-2.647-1.528-8.891-5.133,28.322-16.352,7.963,4.597,3.575,2.064Z"/><polygon class="cls-13" points="64.862 34.373 58.905 30.934 30.582 47.286 36.539 50.725 64.862 34.373"/><path class="cls-4" d="m70.442,37.595c3.988,2.303,9.719,3.635,15.127,2.575l-28.322,16.352c-5.408,1.061-11.138-.272-15.127-2.575l-2.647-1.528-8.891-5.133,28.322-16.352,7.963,4.597,3.575,2.064Z"/><g><polygon class="cls-11" points="23.137 68.962 15.744 61.184 25.763 63.28 23.137 68.962"/><path class="cls-9" d="m71.657,89.809l-45.375-26.197c-.379-.39-.943-.459-1.583-.09-1.141.659-2.066,2.426-2.066,3.947,0,1.001.404,1.635,1.003,1.772l44.922,25.935,3.099-5.367Z"/><path class="cls-12" d="m23.148,65.37c.379-.798.93-1.489,1.551-1.848.639-.369,1.204-.299,1.583.09l45.375,26.197-1.544,2.675-46.964-27.114Z"/><path class="cls-3" d="m71.657,89.809l-45.375-26.197c-.379-.39-.943-.459-1.583-.09-1.141.659-2.066,2.426-2.066,3.947,0,1.001.404,1.635,1.003,1.772l44.922,25.935,3.099-5.367Z"/><path class="cls-9" d="m71.657,89.809l-5.14-2.967c-.379-.39-.943-.459-1.583-.09-1.141.659-2.066,2.426-2.066,3.947,0,1.001.404,1.635,1.003,1.772l4.687,2.706,3.099-5.367Z"/><path class="cls-8" d="m63.383,88.6c-.317.667-.515,1.407-.515,2.099,0,1.001.404,1.635,1.003,1.772l4.687,2.706,1.554-2.692-6.729-3.885Z"/><ellipse class="cls-7" cx="70.074" cy="92.474" rx="3.171" ry="1.794" transform="translate(-42.454 120.744) rotate(-66.949)"/></g><path class="cls-2" d="m71.657,89.81h0s0,0,0,0c-.147-.151-.321-.254-.519-.3l-4.623-2.669c-.132-.135-.292-.216-.464-.268l-39.768-22.96c-.095-.097-.201-.175-.317-.23-.069-.033-.147-.042-.223-.059l.02-.044-10.018-2.095,7.393,7.777.006-.012c.144.139.304.248.493.292l39.753,22.951c.141.132.298.236.482.278l4.62,2.667c.379.39.944.46,1.583.09,1.141-.659,2.066-2.426,2.066-3.947,0-.668-.186-1.166-.483-1.471Z"/><path class="cls-11" d="m109.697,66.226l-10.081-5.82-.002.003c-.492-.284-1.131-.26-1.832.145l-2.082,1.202v7.474l2.082-1.202c.41-.237.797-.584,1.148-.997l9.294,3.692,1.474-4.497Z"/><path class="cls-9" d="m105.781,75.05l2.082-1.202c1.548-.894,2.803-3.291,2.803-5.355,0-2.064-1.255-3.013-2.803-2.119l-2.082,1.202v7.474Z"/><path class="cls-2" d="m109.696,66.229v-.004s-10.08-5.82-10.08-5.82l-.002.003c-.492-.284-1.131-.26-1.832.145l-2.082,1.202v7.474l2.082-1.202c.41-.237.797-.584,1.148-.997l6.852,2.722v5.298l2.082-1.202c1.548-.894,2.803-3.291,2.803-5.355,0-1.129-.377-1.92-.97-2.263Z"/><polygon class="cls-9" points="88.224 77.712 78.143 71.891 95.7 61.755 105.781 67.576 88.224 77.712"/><polygon class="cls-12" points="89.322 73.105 86.123 71.258 94.603 66.362 97.801 68.209 89.322 73.105"/><polygon class="cls-7" points="105.781 67.576 105.781 75.05 88.224 85.186 88.224 77.712 105.781 67.576"/><polygon class="cls-2" points="95.7 61.755 78.143 71.891 88.224 77.712 88.224 85.186 105.781 75.05 105.781 67.576 95.7 61.755"/><path class="cls-11" d="m78.143,71.891l-2.082,1.202c-1.548.894-2.803,3.291-2.803,5.355,0,1.129.377,1.921.97,2.263v.003s10.08,5.82,10.08,5.82v-.003c.493.284,1.133.26,1.834-.145l2.082-1.202v-7.474l-10.081-5.82Z"/><path class="cls-9" d="m88.224,77.712l-2.082,1.202c-1.548.894-2.803,3.291-2.803,5.355s1.255,3.013,2.803,2.119l2.082-1.202v-7.474Z"/><path class="cls-2" d="m78.143,71.891l-2.082,1.202c-1.548.894-2.803,3.291-2.803,5.355,0,1.129.377,1.921.97,2.263v.003s10.08,5.82,10.08,5.82v-.003c.493.284,1.133.26,1.834-.145l2.082-1.202v-7.474l-10.081-5.82Z"/><rect class="cls-1" x="14.94" y="14.94" width="96.531" height="96.531"/><rect class="cls-1" x="14.94" y="14.94" width="96.531" height="96.531"/></svg>