<?xml version="1.0" encoding="UTF-8"?><svg id="Icons" xmlns="http://www.w3.org/2000/svg" viewBox="0 0 126.41 126.41"><defs><style>.cls-1{fill:#fff;}.cls-2{fill:#c6befe;}.cls-3{fill:#d7d7d7;}.cls-4{fill:#757575;}.cls-5{fill:#7855fa;}.cls-6{stroke:#131313;}.cls-6,.cls-7{stroke-linecap:round;stroke-linejoin:round;}.cls-6,.cls-7,.cls-8,.cls-9{fill:none;stroke-width:1.609px;}.cls-7{stroke:#4b00aa;}.cls-8{stroke:#d7d7d7;}.cls-8,.cls-9{stroke-miterlimit:10;}.cls-9{stroke:#c6befe;}</style></defs><path class="cls-2" d="m37.294,41.795c-8.592,0-20.875,7.657-20.875,22.792,0,8.089,13.819,9.125,23.865,6.58,10.046-2.544,13.512-7.546,13.512-12.722,0-8.423-7.238-16.65-16.502-16.65Z"/><path class="cls-7" d="m37.294,41.795c-8.592,0-20.875,7.657-20.875,22.792,0,8.089,13.819,9.125,23.865,6.58,10.046-2.544,13.512-7.546,13.512-12.722,0-8.423-7.238-16.65-16.502-16.65Z"/><path class="cls-9" d="m30.408,71.037c-2.963,0-12.63-.465-12.63-6.451,0-13.984,11.333-21.432,19.515-21.432,8.923,0,15.141,8.058,15.141,15.29,0,5.392-4.317,9.335-12.486,11.404-3.027.767-6.416,1.189-9.541,1.189h0Z"/><g><circle class="cls-2" cx="35.508" cy="30.279" r="14.535"/><path class="cls-5" d="m44.832,21.984c-.682-.764-1.937-.012-1.552.937,1.239,3.058,1.618,7.533-2.99,12.141s-9.082,4.229-12.14,2.99c-.949-.385-1.701.87-.937,1.552,2.512,2.243,5.93,3.488,9.636,3.1,5.79-.607,10.476-5.294,11.084-11.084.389-3.706-.856-7.125-3.1-9.636Z"/><circle class="cls-7" cx="35.508" cy="30.279" r="14.535"/><ellipse class="cls-1" cx="28.666" cy="23.438" rx="3.35" ry="2.071" transform="translate(-8.177 27.135) rotate(-45)"/><path class="cls-9" d="m35.508,43.455c-7.265,0-13.176-5.91-13.176-13.175s5.91-13.176,13.176-13.176,13.175,5.91,13.175,13.176-5.91,13.175-13.175,13.175Z"/></g><ellipse class="cls-1" cx="25.031" cy="52.831" rx="3.034" ry="1.876" transform="translate(-31.598 38.31) rotate(-50.267)"/><path class="cls-5" d="m51.755,58.445c0-4.713-2.765-9.791-7.226-12.544-1.18-.728-2.707.188-2.548,1.565.112.966.17,1.942.17,2.921,0,6.252-2.955,12.292-11.522,15.364-1.312.471-2.699.839-4.107,1.091-1.872.335-1.817,3.042.07,3.28,1.564.197,2.976.235,3.817.235,3.071,0,6.4-.415,9.374-1.168,5.461-1.383,11.972-4.37,11.972-10.745Z"/><g><path class="cls-2" d="m93.49,41.795c-8.592,0-20.875,7.657-20.875,22.792,0,8.089,13.819,9.125,23.865,6.58,10.046-2.544,13.512-7.546,13.512-12.722,0-8.423-7.238-16.65-16.502-16.65Z"/><path class="cls-7" d="m93.49,41.795c-8.592,0-20.875,7.657-20.875,22.792,0,8.089,13.819,9.125,23.865,6.58,10.046-2.544,13.512-7.546,13.512-12.722,0-8.423-7.238-16.65-16.502-16.65Z"/><path class="cls-9" d="m86.605,71.037c-2.963,0-12.63-.465-12.63-6.451,0-13.984,11.333-21.432,19.515-21.432,8.923,0,15.141,8.058,15.141,15.29,0,5.392-4.317,9.335-12.486,11.404-3.027.767-6.416,1.189-9.541,1.189h0Z"/><g><circle class="cls-2" cx="91.704" cy="30.279" r="14.535"/><path class="cls-5" d="m101.029,21.984c-.682-.764-1.937-.012-1.552.937,1.239,3.058,1.618,7.533-2.99,12.141-4.608,4.608-9.082,4.229-12.14,2.99-.949-.385-1.701.87-.937,1.552,2.512,2.243,5.93,3.488,9.636,3.1,5.79-.607,10.476-5.294,11.084-11.084.389-3.706-.856-7.125-3.1-9.636Z"/><circle class="cls-7" cx="91.704" cy="30.279" r="14.535"/><ellipse class="cls-1" cx="84.862" cy="23.438" rx="3.35" ry="2.071" transform="translate(8.282 66.872) rotate(-45)"/><path class="cls-9" d="m91.704,43.455c-7.265,0-13.176-5.91-13.176-13.175s5.91-13.176,13.176-13.176,13.175,5.91,13.175,13.176-5.91,13.175-13.175,13.175Z"/></g><ellipse class="cls-1" cx="81.227" cy="52.831" rx="3.034" ry="1.876" transform="translate(-11.323 81.527) rotate(-50.267)"/><path class="cls-5" d="m107.951,58.445c0-4.713-2.765-9.791-7.226-12.544-1.18-.728-2.707.188-2.548,1.565.112.966.17,1.942.17,2.921,0,6.252-2.955,12.292-11.522,15.364-1.312.471-2.699.839-4.107,1.091-1.872.335-1.817,3.042.07,3.28,1.564.197,2.976.235,3.817.235,3.071,0,6.4-.415,9.374-1.168,5.461-1.383,11.972-4.37,11.972-10.745Z"/></g><path class="cls-3" d="m65.427,71.864c-10.894,0-26.468,9.708-26.468,28.898,0,10.256,17.521,11.57,30.259,8.344,12.738-3.226,17.132-9.567,17.132-16.131,0-10.68-9.178-21.111-20.923-21.111Z"/><path class="cls-6" d="m65.427,71.864c-10.894,0-26.468,9.708-26.468,28.898,0,10.256,17.521,11.57,30.259,8.344,12.738-3.226,17.132-9.567,17.132-16.131,0-10.68-9.178-21.111-20.923-21.111Z"/><path class="cls-8" d="m56.697,108.941c-3.757,0-16.014-.59-16.014-8.179,0-17.73,14.37-27.174,24.744-27.174,11.313,0,19.198,10.217,19.198,19.386,0,6.836-5.474,11.836-15.831,14.459-3.838.972-8.135,1.508-12.097,1.508h0Z"/><circle class="cls-3" cx="63.163" cy="57.263" r="18.43"/><path class="cls-4" d="m74.986,46.745c-.865-.969-2.456-.015-1.968,1.188,1.571,3.877,2.052,9.551-3.791,15.394-5.842,5.842-11.516,5.362-15.393,3.792-1.204-.488-2.157,1.103-1.188,1.968,3.185,2.844,7.519,4.423,12.217,3.93,7.341-.77,13.283-6.713,14.053-14.054.493-4.698-1.086-9.034-3.931-12.218Z"/><circle class="cls-6" cx="63.163" cy="57.263" r="18.43"/><ellipse class="cls-1" cx="54.488" cy="48.588" rx="4.247" ry="2.626" transform="translate(-18.398 52.76) rotate(-45)"/><path class="cls-8" d="m63.163,73.968c-9.212,0-16.706-7.494-16.706-16.705s7.494-16.706,16.706-16.706,16.705,7.494,16.705,16.706-7.494,16.705-16.705,16.705Z"/><ellipse class="cls-1" cx="49.879" cy="85.856" rx="3.847" ry="2.378" transform="translate(-48.03 69.334) rotate(-50.267)"/><path class="cls-4" d="m83.763,92.974c0-5.976-3.505-12.414-9.162-15.904-1.496-.923-3.432.238-3.23,1.984.142,1.224.216,2.462.216,3.704,0,7.927-3.747,15.585-14.61,19.481-1.663.597-3.422,1.064-5.208,1.383-2.374.424-2.304,3.857.089,4.159,1.983.25,3.773.298,4.839.298,3.894,0,8.115-.526,11.886-1.481,6.925-1.754,15.18-5.541,15.18-13.624Z"/></svg>