<?xml version="1.0" encoding="UTF-8"?><svg id="Icons" xmlns="http://www.w3.org/2000/svg" viewBox="0 0 126.41 126.41"><defs><style>.cls-1{fill:#fff;}.cls-2{fill:#c6befe;}.cls-3{fill:#d7d7d7;}.cls-4{fill:#131313;}.cls-5{fill:#4b00aa;}.cls-6{fill:#757575;}.cls-7{fill:#7855fa;}</style></defs><path class="cls-3" d="m113.039,74.64c.08-.724-.322-1.368-.965-1.689l-45.45-26.224c-1.528-.804-3.459-.804-4.987,0l-47.22,27.511c-.563.241-.965.804-1.046,1.448h0v6.355c.08.644.483,1.207,1.046,1.448l45.369,26.224c1.528.804,3.379.804,4.987,0l47.22-27.431c.563-.241.965-.804,1.046-1.448v-6.355c.08,0,.08.08,0,.161Z"/><path class="cls-3" d="m62.28,110.196c.885,0,1.77-.161,2.574-.563l47.22-27.431c.563-.241.965-.804,1.046-1.448v-6.355c-.08.644-.483,1.207-1.046,1.448l-47.22,27.431c-.804.402-1.609.644-2.494.563"/><path class="cls-1" d="m112.073,72.951c1.368.804,1.368,2.091,0,2.896l-47.22,27.431c-1.528.804-3.459.804-4.987,0l-45.45-26.144c-1.368-.804-1.368-2.091,0-2.896l47.22-27.511c1.528-.804,3.459-.804,4.987,0l45.45,26.224Z"/><path class="cls-3" d="m66.624,46.727c-1.528-.804-3.459-.804-4.987,0l-47.22,27.511c-1.368.804-1.368,2.091,0,2.896l6.757,3.942,52.207-30.407-6.757-3.942Z"/><path class="cls-4" d="m35.171,62.976c-.483,0-.804-.402-.804-.804,0-.322.161-.563.402-.724l4.263-2.494c.402-.241.885-.161,1.126.241.241.402.161.885-.241,1.126,0,0-.08,0-.08.08l-4.263,2.494c-.161,0-.241.08-.402.08Z"/><path class="cls-4" d="m45.226,57.104c-.483,0-.804-.402-.804-.804,0-.322.161-.563.402-.724l7.481-4.344c.402-.241.885-.08,1.046.322s.08.804-.241,1.046l-7.481,4.344c-.08.08-.241.161-.402.161Z"/><path class="cls-4" d="m20.933,71.262c-.483,0-.804-.402-.804-.804,0-.322.161-.563.402-.724l4.103-2.413c.402-.241.885-.08,1.126.322s.08.885-.322,1.046l-4.103,2.413c-.161.08-.241.161-.402.161Z"/><path class="cls-6" d="m21.174,87.994c-.483,0-.804-.322-.804-.804v-6.194c0-.483.322-.804.804-.804s.804.322.804.804v6.194c0,.402-.322.804-.804.804h0Z"/><path class="cls-3" d="m80.058,95.234c-.161,0-.241,0-.402-.08l-40.945-23.891c-.402-.241-.483-.724-.322-1.126.241-.402.724-.483,1.126-.322l40.945,23.891c.402.241.483.724.322,1.126-.161.241-.402.402-.724.402h0Z"/><path class="cls-3" d="m34.769,89.603c-.483,0-.804-.322-.804-.804,0-.322.161-.563.402-.724l52.126-30.407c.402-.241.885-.08,1.126.241s.08.885-.241,1.126h0l-52.207,30.488c-.161.08-.241.08-.402.08Z"/><path class="cls-3" d="m48.846,97.727c-.483,0-.804-.322-.804-.804,0-.322.161-.563.402-.724l52.126-30.407c.402-.241.885-.161,1.126.241s.161.885-.241,1.126c0,0-.08,0-.08.08l-52.126,30.407c-.161.08-.322.08-.402.08Z"/><path class="cls-3" d="m97.674,85.017c-.161,0-.241,0-.402-.08l-40.945-23.891c-.402-.161-.563-.644-.322-1.046.161-.402.644-.563,1.046-.322,0,0,.08,0,.08.08l40.945,23.891c.402.241.483.724.322,1.126-.161.08-.402.241-.724.241h0Z"/><path class="cls-6" d="m62.36,104.726c-1.046,0-2.011-.241-2.896-.724l-45.45-26.224c-1.207-.483-1.77-1.85-1.287-2.976.241-.563.644-1.046,1.287-1.287l47.22-27.431c1.85-.965,3.942-.965,5.792,0l45.369,26.224h0c1.207.483,1.77,1.85,1.287,2.976-.241.563-.724,1.046-1.287,1.287l-47.22,27.431c-.804.483-1.85.724-2.815.724Zm1.77-57.757c-.724,0-1.448.161-2.091.483l-47.22,27.431c-.402.241-.644.563-.644.724s.241.483.644.724l45.369,26.224c1.287.644,2.896.644,4.183,0l47.22-27.431c.402-.241.644-.483.644-.724s-.241-.563-.644-.724l-45.369-26.224c-.644-.322-1.368-.483-2.091-.483h0Z"/><path class="cls-6" d="m21.174,81.8c-.161,0-.241,0-.402-.08l-6.757-3.942c-1.207-.483-1.77-1.85-1.287-2.976.241-.563.644-1.046,1.287-1.287l47.22-27.431c1.85-.965,3.942-.965,5.792,0h0l6.757,3.942c.402.241.483.724.322,1.126-.08.161-.161.241-.322.322l-52.207,30.246c-.08.08-.241.08-.402.08Zm42.956-34.831c-.724,0-1.448.161-2.091.483l-47.22,27.431c-.402.241-.644.563-.644.724s.241.483.644.724l6.355,3.7,50.679-29.361-5.551-3.218c-.724-.322-1.448-.483-2.172-.483h0Z"/><path class="cls-4" d="m62.36,111h0c-1.046,0-2.011-.241-2.896-.724l-45.45-26.144c-.804-.402-1.368-1.207-1.448-2.172v-6.435c.08-.885.644-1.689,1.448-2.091l47.22-27.431c1.85-.965,3.942-.965,5.792,0l45.369,26.224c.804.402,1.287,1.126,1.448,1.931v.161h0v6.355c-.08.885-.563,1.689-1.448,2.091l-47.22,27.431c-.804.644-1.85.885-2.815.804ZM14.175,75.686v6.274c0,.241.241.563.644.724l45.369,26.224c1.287.644,2.896.644,4.183,0l47.22-27.431c.402-.241.644-.483.644-.724v-5.872c0-.08-.08-.241,0-.322v-.08c.08-.402-.402-.724-.644-.804l-45.369-26.224c-1.287-.644-2.896-.644-4.183,0l-47.22,27.431c-.402.241-.644.563-.644.804h0Z"/><ellipse class="cls-6" cx="34.552" cy="67.9" rx="1.448" ry="2.574" transform="translate(-33.446 102.259) rotate(-89.837)"/><ellipse class="cls-6" cx="52.394" cy="57.822" rx="1.448" ry="2.574" transform="translate(-5.577 110.051) rotate(-89.837)"/><path class="cls-4" d="m34.608,68.366c-.402,0-.804-.322-.804-.724-.161-2.172-1.368-4.103-3.218-5.309-.644-.483-1.528-.563-2.252-.241-.644.483-1.046,1.287-.965,2.091,0,.804.161,1.609.483,2.333.241.402.08.885-.322,1.126s-.885.08-1.126-.322c0,0,0-.08-.08-.08-.402-.965-.644-2.011-.644-3.057-.08-1.368.563-2.735,1.77-3.459,1.207-.644,2.735-.563,3.861.241,2.333,1.448,3.781,3.861,4.022,6.596.08.402-.241.724-.724.804h0Z"/><path class="cls-4" d="m52.385,58.15c-.402,0-.804-.322-.804-.724-.161-2.172-1.368-4.103-3.218-5.309-.644-.483-1.528-.563-2.252-.241-.644.483-1.046,1.287-.965,2.091,0,.724.161,1.528.483,2.252.161.402,0,.885-.402,1.046s-.885,0-1.046-.402h0c-.402-.885-.563-1.85-.563-2.896-.241-1.931,1.207-3.7,3.137-3.861.885-.08,1.77.161,2.494.644,2.333,1.448,3.781,3.861,4.022,6.596-.08.402-.402.804-.885.804q.08,0,0,0h0Z"/><polygon class="cls-2" points="73.622 52.921 82.873 58.311 70.163 65.711 60.832 60.322 73.622 52.921"/><polygon class="cls-3" points="73.622 22.594 82.873 27.984 70.163 35.385 60.832 29.995 73.622 22.594"/><polygon class="cls-1" points="73.622 16.239 82.873 21.629 70.163 29.03 60.832 23.64 73.622 16.239"/><polygon class="cls-7" points="82.873 21.629 70.163 29.03 70.163 35.385 82.873 27.984 82.873 21.629"/><polygon class="cls-2" points="70.163 35.385 60.832 29.995 60.832 23.64 70.163 29.03 70.163 35.385"/><path class="cls-5" d="m70.163,36.189c-.161,0-.241,0-.402-.08l-9.331-5.39c-.241-.161-.402-.402-.402-.724v-6.355c0-.322.161-.563.402-.724l12.79-7.401c.241-.161.563-.161.804,0l9.251,5.39c.241.161.402.402.402.724v6.355c0,.322-.161.563-.402.724l-12.71,7.401c-.161,0-.241.08-.402.08Zm-8.527-6.677l8.527,4.907,11.986-6.918v-5.39l-8.527-4.907-11.986,6.918v5.39Z"/><polygon class="cls-3" points="52.144 80.834 61.475 86.224 48.685 93.625 39.434 88.235 52.144 80.834"/><polygon class="cls-1" points="52.144 74.56 61.475 79.869 48.685 87.35 39.434 81.961 52.144 74.56"/><polygon class="cls-6" points="61.475 79.869 48.685 87.35 48.685 93.625 61.475 86.224 61.475 79.869"/><polygon class="cls-3" points="48.685 93.625 39.434 88.235 39.434 81.961 48.685 87.35 48.685 93.625"/><path class="cls-4" d="m48.685,94.429c-.161,0-.241,0-.402-.08l-9.331-5.39c-.241-.161-.402-.402-.402-.724v-6.355c0-.322.161-.563.402-.724l12.71-7.401c.241-.161.563-.161.804,0l9.331,5.39c.241.161.402.402.402.724v6.355c0,.322-.161.563-.402.724l-12.71,7.401c-.08.08-.241.08-.402.08Zm-8.446-6.596l8.527,4.907,11.986-6.918v-5.39l-8.527-4.907-11.986,6.918v5.39Z"/><path class="cls-5" d="m82.873,52.76c-.241,0-.402-.08-.563-.241s-.241-.322-.241-.563v-.161q0-.08.08-.161c0-.08.08-.08.08-.161s.08-.08.08-.161c0,0,.08-.08.161-.08s.08-.08.161-.08.08,0,.161-.08h.322q.08,0,.161.08.08,0,.161.08c.08,0,.08.08.161.08s.08.08.08.161.08.08.08.161,0,.08.08.161v.161c0,.241-.08.402-.241.563-.241.161-.483.241-.724.241Z"/><path class="cls-5" d="m82.069,46.888c0-.402.402-.804.804-.804h0c.402,0,.804.322.804.804h0c0,.483-.322.804-.804.804h0c-.402,0-.804-.322-.804-.804h0Zm0-5.068c0-.483.322-.804.804-.804h0c.483,0,.804.322.804.804h0c0,.483-.322.804-.804.804h0c-.402,0-.804-.322-.804-.804Zm0-4.987c0-.483.322-.804.804-.804h0c.483,0,.804.322.804.804h0c0,.483-.322.804-.804.804h0c-.402,0-.804-.402-.804-.804Z"/><path class="cls-5" d="m82.873,32.569c-.241,0-.402-.08-.563-.241-.161-.161-.241-.322-.241-.563s.08-.402.241-.563c.241-.241.563-.322.885-.161.08,0,.08.08.161.08s.08.08.161.08c.161.161.241.322.241.563s-.08.402-.241.563c-.08.08-.161.161-.241.161-.161.08-.241.08-.402.08Z"/><path class="cls-5" d="m60.832,55.736c-.241,0-.402-.08-.563-.241-.08-.08-.161-.161-.161-.241-.08-.161-.08-.241-.08-.322,0-.241.08-.402.241-.563.08-.08.161-.161.241-.161.161-.08.402-.08.644,0,.08.08.161.08.241.161.161.161.241.322.241.563,0,.08,0,.241-.08.322-.08.08-.08.161-.161.241-.161.161-.322.241-.563.241Z"/><path class="cls-5" d="m60.027,49.703c0-.483.322-.804.804-.804h0c.483,0,.804.322.804.804h0c0,.483-.322.804-.804.804h0c-.402,0-.804-.322-.804-.804Zm0-5.148c0-.483.322-.804.804-.804h0c.483,0,.804.322.804.804h0c0,.483-.322.804-.804.804h0c-.402,0-.804-.402-.804-.804Zm0-5.229c0-.483.322-.804.804-.804h0c.483,0,.804.322.804.804h0c0,.483-.322.804-.804.804h0c-.402,0-.804-.322-.804-.804h0Z"/><path class="cls-5" d="m60.832,34.982c-.241,0-.402-.08-.563-.241-.161-.161-.241-.402-.241-.563,0-.08,0-.241.08-.322,0-.08.08-.161.161-.241.322-.322.804-.322,1.126,0,.08.08.161.161.161.241.08.08.08.161.08.322,0,.241-.08.402-.241.563-.161.08-.322.161-.563.241Z"/></svg>