<?xml version="1.0" encoding="UTF-8"?><svg id="Icons" xmlns="http://www.w3.org/2000/svg" viewBox="0 0 126.41 126.41"><defs><style>.cls-1{fill:none;}.cls-2{fill:#fff;}.cls-3{fill:#c6befe;}.cls-4{fill:#d7d7d7;}.cls-5{fill:#131313;}.cls-6{fill:#4b00aa;}.cls-7{fill:#757575;}.cls-8{fill:#7855fa;}</style></defs><path class="cls-3" d="m46.714,34.648v-.08c0-.483-.724-.965-1.609-.965h-5.872c-.885,0-1.609.402-1.609.965v.08h-14.801v16.41h0c0,.161.08.322.241.483l2.976,2.976c.644.483,1.448.644,2.252.322l3.861-1.287c1.77.885,3.62,1.528,5.551,1.85v2.574c0,.483.724.965,1.609.965h5.872c.885,0,1.609-.402,1.609-.965v-2.574c1.931-.322,3.781-.965,5.551-1.85l3.861,1.287c.724.241,1.609.161,2.252-.322l2.976-2.976c.161-.08.241-.322.241-.483h0v-16.41h-14.962Z"/><path class="cls-3" d="m45.105,59.665h-5.872c-1.368,0-2.413-.724-2.413-1.77v-1.931c-1.689-.322-3.298-.885-4.746-1.609l-3.539,1.207c-1.126.402-2.333.161-3.137-.563l-2.976-2.976c-.322-.241-.483-.644-.483-1.046v-16.33c0-.483.322-.804.804-.804h14.158c.483-.724,1.368-1.126,2.252-1.046h5.872c.885-.08,1.689.322,2.252,1.046h14.158c.483,0,.804.322.804.804v16.41c0,.402-.161.804-.483,1.046l-2.976,2.976c-.885.724-2.011.885-3.057.563l-3.459-1.287c-1.528.724-3.137,1.287-4.746,1.609v1.931c0,1.046-1.046,1.77-2.413,1.77Zm-6.757-1.85c.241.161.563.241.804.241h5.872c.322,0,.563-.08.804-.241v-2.494c0-.402.241-.724.644-.804,1.85-.322,3.62-.885,5.309-1.77.161-.08.402-.08.644-.08l3.861,1.287c.483.161.965.08,1.368-.161l2.896-2.896v-15.445h-13.836c-.483,0-.804-.322-.804-.804h0c-.241-.161-.563-.241-.804-.241h-5.872c-.322,0-.563.08-.804.241h0c0,.483-.322.804-.804.804h-13.997v15.525l2.896,2.976c.402.241.965.322,1.368.161l3.861-1.287c.241-.08.402-.08.644.08,1.689.804,3.459,1.448,5.309,1.77.402.08.644.402.644.804v2.333Z"/><path class="cls-3" d="m52.184,53.552h0l3.861,1.287c.402.08.804.161,1.126.08v-15.043h-4.987v13.675Z"/><path class="cls-3" d="m22.984,51.541l2.976,2.976c.402.322.965.483,1.528.483v-20.352h-4.666v16.41h0c0,.161.08.322.161.483Z"/><path class="cls-3" d="m31.993,53.552c1.77.885,3.62,1.528,5.47,1.85v-17.134h-5.47v15.284Z"/><ellipse class="cls-3" cx="42.129" cy="38.59" rx="6.757" ry="3.942"/><path class="cls-3" d="m22.823,50.173c-.483,0-.804-.322-.804-.804v-8.446c0-.483.322-.804.804-.804s.804.322.804.804v8.366c0,.483-.402.885-.804.885Z"/><path class="cls-8" d="m31.993,54.356c-.483,0-.804-.322-.804-.804v-10.136c0-.483.322-.804.804-.804s.804.322.804.804v10.136c0,.402-.322.804-.804.804Z"/><path class="cls-8" d="m37.544,58.7c-.483,0-.804-.322-.804-.804v-10.055c0-.483.322-.804.804-.804s.804.322.804.804v10.055c0,.483-.322.804-.804.804Z"/><path class="cls-8" d="m46.714,58.7c-.483,0-.804-.322-.804-.804v-10.055c0-.483.322-.804.804-.804s.804.322.804.804v10.055c0,.483-.322.804-.804.804Z"/><path class="cls-8" d="m52.184,54.356c-.483,0-.804-.322-.804-.804v-10.136c0-.483.322-.804.804-.804s.804.322.804.804v10.136c0,.402-.322.804-.804.804Z"/><path class="cls-3" d="m35.372,38.59c0,2.172,3.057,3.942,6.757,3.942v-7.803c-3.781-.08-6.757,1.689-6.757,3.861Z"/><path class="cls-3" d="m42.129,43.336c-4.263,0-7.562-2.091-7.562-4.746s3.298-4.746,7.562-4.746,7.562,2.091,7.562,4.746-3.298,4.746-7.562,4.746Zm0-7.883c-3.218,0-5.953,1.448-5.953,3.137s2.815,3.137,5.953,3.137c3.539,0,5.953-1.609,5.953-3.137s-2.413-3.137-5.953-3.137Z"/><path class="cls-3" d="m45.105,59.665h-5.872c-1.368,0-2.413-.724-2.413-1.77v-1.931c-1.689-.322-3.298-.885-4.746-1.609l-3.539,1.207c-1.126.402-2.333.161-3.137-.563l-2.976-2.976c-.322-.241-.483-.644-.483-1.046v-16.33h1.609v16.33l2.896,2.976c.402.241.965.322,1.368.161l3.861-1.287c.241-.08.402-.08.644.08,1.689.804,3.459,1.448,5.309,1.77.402.08.644.402.644.804v2.494c.241.161.563.241.804.241h5.872c.322,0,.563-.08.804-.241v-2.494c0-.402.241-.724.644-.804,1.85-.322,3.62-.885,5.309-1.77.161-.08.402-.08.644-.08l3.861,1.287c.483.161.965.08,1.368-.161l2.896-2.896v-16.41c0-.483.322-.804.804-.804s.804.322.804.804v16.41c0,.402-.161.804-.483,1.046l-2.976,2.976c-.885.724-2.011.885-3.057.563l-3.298-1.287c-1.528.724-3.137,1.287-4.746,1.609v1.931c0,1.046-1.046,1.77-2.413,1.77Z"/><path class="cls-2" d="m60.631,41.727l-3.861-1.287c.483-1.207.483-2.494,0-3.7l3.861-1.287c.804-.241,1.046-.804.563-1.287l-2.976-2.976c-.644-.483-1.448-.644-2.252-.322l-3.861,1.287c-1.77-.885-3.62-1.528-5.47-1.85v-2.574c0-.483-.724-.965-1.609-.965h-5.872c-.885,0-1.609.402-1.609.965v2.574c-1.931.322-3.781.965-5.551,1.85l-3.861-1.287c-.724-.241-1.609-.161-2.252.322l-2.896,2.976c-.483.483-.161,1.046.563,1.287l3.861,1.287c-.483,1.207-.483,2.494,0,3.7l-3.861,1.287c-.804.241-1.046.804-.563,1.287l2.976,2.976c.644.483,1.448.644,2.252.322l3.861-1.287c1.77.885,3.62,1.528,5.47,1.85v2.574c0,.483.724.965,1.609.965h5.872c.885,0,1.609-.402,1.609-.965v-2.574c1.931-.322,3.781-.965,5.551-1.85l3.861,1.287c.724.241,1.609.161,2.252-.322l2.976-2.976c.402-.483.161-1.046-.644-1.287Zm-18.502.804c-3.781,0-6.757-1.77-6.757-3.942s3.057-3.942,6.757-3.942,6.757,1.77,6.757,3.942-2.976,3.942-6.757,3.942Z"/><path class="cls-8" d="m45.105,51.139h-5.872c-1.368,0-2.413-.724-2.413-1.77v-1.931c-1.689-.322-3.298-.885-4.746-1.609l-3.539,1.207c-1.046.402-2.172.161-3.057-.563l-2.976-2.976c-.402-.322-.563-.885-.402-1.368.161-.644.724-1.126,1.287-1.287l3.137-1.046c-.161-.885-.161-1.77,0-2.655l-3.137-1.046c-.644-.161-1.126-.644-1.287-1.287-.08-.483.08-1.046.402-1.368l2.976-2.976c.885-.724,2.011-.885,3.057-.563l3.539,1.207c1.528-.724,3.137-1.287,4.746-1.609v-1.931c0-.965,1.046-1.77,2.413-1.77h5.872c1.368,0,2.413.724,2.413,1.77v1.931c1.689.322,3.298.885,4.746,1.609l3.539-1.207c1.046-.402,2.172-.161,3.057.563l2.976,2.976c.402.322.563.885.402,1.368-.161.644-.724,1.126-1.368,1.287l-3.137,1.046c.161.885.161,1.77,0,2.655l3.137,1.046c.644.161,1.126.644,1.287,1.287.08.483-.08,1.046-.402,1.368l-2.976,2.976c-.885.724-2.011.885-3.057.563l-3.539-1.207c-1.528.724-3.137,1.287-4.746,1.609v1.931c.08,1.046-.965,1.77-2.333,1.77Zm-6.757-1.85c.241.161.563.241.804.241h5.872c.322,0,.563-.08.804-.241v-2.494c0-.402.241-.724.644-.804,1.85-.322,3.62-.885,5.309-1.77.161-.08.402-.08.644-.08l3.861,1.287c.483.161.965.08,1.368-.161l2.815-2.815c-.08,0-.08-.08-.161-.08h0l-3.861-1.287c-.402-.161-.644-.563-.483-1.046h0c.402-.965.402-2.091,0-3.137-.161-.402.08-.885.483-1.046h0l3.861-1.287c.08,0,.08-.08.161-.08l-2.815-2.815c-.402-.241-.965-.322-1.368-.161l-3.861,1.287c-.241.08-.402.08-.644-.08-1.689-.885-3.459-1.448-5.309-1.77-.402-.08-.644-.402-.644-.804v-2.333c-.241-.161-.563-.241-.804-.241h-5.872c-.322,0-.563.08-.804.241v2.494c0,.402-.241.724-.644.804-1.85.322-3.62.885-5.309,1.77-.161.08-.402.08-.644.08l-3.861-1.287c-.483-.161-.965-.08-1.368.161l-2.815,2.815c.08,0,.08.08.161.08l3.861,1.287c.402.161.644.563.483,1.046h0c-.402.965-.402,2.091,0,3.137.161.402-.08.885-.483,1.046h0l-3.861,1.287c-.08,0-.08.08-.161.08l2.815,2.815c.402.241.965.322,1.368.161l3.861-1.287c.241-.08.402-.08.644.08,1.689.804,3.459,1.448,5.309,1.77.402.08.644.402.644.804v2.333Zm3.781-5.953c-4.263,0-7.562-2.091-7.562-4.746s3.298-4.746,7.562-4.746,7.562,2.091,7.562,4.746-3.298,4.746-7.562,4.746Zm0-7.883c-3.218,0-5.953,1.448-5.953,3.137s2.815,3.137,5.953,3.137c3.539,0,5.953-1.609,5.953-3.137s-2.413-3.137-5.953-3.137Z"/><path class="cls-6" d="m61.435,35.452c-.241,0-.402-.08-.563-.241-.322-.322-.322-.804,0-1.126.241-.241.563-.322.885-.161.08.08.161.08.241.161l.08.08c0,.08.08.08.08.161s.08.08.08.161v.161c0,.241-.08.402-.241.563-.08.08-.161.161-.241.161-.08.08-.161.08-.322.08Z"/><path class="cls-6" d="m60.631,30.304c0-.483.322-.804.804-.804h0c.483,0,.804.322.804.804h0c0,.483-.322.804-.804.804h0c-.402,0-.804-.322-.804-.804Zm0-4.263c0-.402.322-.804.804-.804h0c.483,0,.804.322.804.804h0c0,.483-.322.804-.804.804h0c-.402,0-.804-.402-.804-.804Zm0-4.344c0-.483.322-.804.804-.804h0c.483,0,.804.322.804.804h0c0,.483-.322.804-.804.804h0c-.402,0-.804-.402-.804-.804Z"/><path class="cls-6" d="m61.435,18.157h-.161q-.08,0-.161-.08c-.08,0-.08-.08-.161-.08s-.08-.08-.161-.08c-.08-.08-.161-.161-.161-.241-.08-.161-.08-.402,0-.644.08-.08.08-.161.161-.241.241-.241.563-.322.885-.161.08.08.161.08.241.161.322.322.322.804,0,1.126,0,.161-.241.241-.483.241Z"/><path class="cls-6" d="m22.823,35.452c-.241,0-.402-.08-.563-.241-.322-.322-.322-.804,0-1.126s.804-.322,1.126,0,.322.804,0,1.126c-.161.161-.402.241-.563.241Z"/><path class="cls-6" d="m22.019,30.304c0-.483.322-.804.804-.804h0c.483,0,.804.322.804.804h0c0,.483-.322.804-.804.804h0c-.483,0-.804-.322-.804-.804Zm0-4.263c0-.483.322-.804.804-.804h0c.483,0,.804.322.804.804h0c0,.402-.322.804-.804.804h0c-.483-.08-.804-.402-.804-.804h0Zm0-4.344c0-.483.322-.804.804-.804h0c.483,0,.804.322.804.804h0c0,.483-.322.804-.804.804h0c-.483,0-.804-.402-.804-.804Z"/><path class="cls-6" d="m22.823,18.157c-.402,0-.804-.322-.804-.804h0c0-.483.402-.804.804-.804.483,0,.804.402.804.804,0,.241-.08.402-.241.563-.161.161-.402.241-.563.241Z"/><path class="cls-6" d="m45.105,59.665h-5.872c-1.368,0-2.413-.724-2.413-1.77v-1.931c-1.689-.322-3.298-.885-4.746-1.609l-3.539,1.207c-.322.08-.563.161-.885.161h-.644c-.161,0-.322-.08-.483-.08h-.08c-.161-.08-.241-.08-.402-.161,0,0-.08,0-.08-.08-.161-.08-.322-.161-.402-.322l-2.976-2.976c-.322-.241-.483-.644-.483-1.046v-16.571c.08-.322.161-.644.402-.885l2.976-2.976c.885-.724,2.011-.885,3.057-.563l3.539,1.207c1.528-.724,3.137-1.287,4.746-1.609v-1.931c0-.965,1.046-1.77,2.413-1.77h5.872c1.368,0,2.413.724,2.413,1.77v1.931c1.689.322,3.298.885,4.746,1.609l3.539-1.207c1.046-.402,2.172-.161,3.057.563l2.976,2.976c.241.241.402.563.402.885v16.571c0,.402-.161.804-.483,1.046l-2.976,2.976c-.402.402-.885.644-1.448.644h-.804c-.241,0-.483-.08-.804-.161l-3.459-1.207c-1.528.724-3.137,1.287-4.746,1.609v1.931c0,1.046-1.046,1.77-2.413,1.77Zm-6.757-1.85c.241.161.563.241.804.241h5.872c.322,0,.563-.08.804-.241v-2.494c0-.402.241-.724.644-.804,1.85-.322,3.62-.885,5.309-1.77.161-.08.402-.08.644-.08l3.861,1.287c.08,0,.241.08.402.08h.402c.241,0,.402-.08.563-.241l2.896-2.896v-16.169h0l-2.896-2.976c-.402-.241-.965-.322-1.368-.161l-3.861,1.287c-.241.08-.402.08-.644-.08-1.689-.885-3.459-1.448-5.309-1.77-.402-.08-.644-.402-.644-.804v-2.413c-.241-.161-.563-.241-.804-.241h-5.872c-.322,0-.563.08-.804.241v2.494c0,.402-.241.724-.644.804-1.85.322-3.62.885-5.309,1.77-.161.08-.402.08-.644.08l-3.861-1.287c-.483-.161-.965-.08-1.368.161l-2.896,2.896h0v16.249l2.896,2.976.08.08c.08,0,.161.08.161.08.08,0,.161.08.322.08h.322c.161,0,.322,0,.483-.08l3.861-1.287c.241-.08.402-.08.644.08,1.689.804,3.459,1.448,5.309,1.77.402.08.644.402.644.804v2.333Z"/><path class="cls-4" d="m95.543,56.367c-.161-.161-.402-.241-.563-.322l-5.792-1.931c-.885-.322-1.77-.161-2.494.402l-1.046,1.046-11.181-.965-.08-.08c-.724-.563-1.689-.724-2.494-.402l-.644.241-13.836-1.126v9.653h0v3.861c0,.563.804,1.046,1.85,1.046h5.068c.241.402.563.804.804,1.207v5.47h0c0,.402.322.724.885.965l5.792,1.931c.885.322,1.77.161,2.494-.402l2.494-2.494c2.413.322,4.827.322,7.24,0l2.494,2.494c.724.563,1.689.724,2.494.402l5.792-1.931c.563-.161.885-.563.885-.965h0v-5.47c.322-.402.563-.804.804-1.207h5.068c1.046,0,1.85-.483,1.85-1.046v-9.653l-7.883-.724Z"/><path class="cls-4" d="m94.98,56.046l-2.574-.885v14.801h3.539v-1.046c.322-.402.563-.804.804-1.207h5.068c1.046,0,1.85-.483,1.85-1.046v-9.653l-8.125-.644c-.161-.08-.402-.241-.563-.322Z"/><path class="cls-7" d="m95.864,70.847h-3.539c-.483,0-.804-.322-.804-.804v-14.801c0-.483.322-.804.804-.804.08,0,.161,0,.241.08l2.574.885c.241.08.402.161.563.241l7.883.644c.402,0,.724.402.724.804v9.653c0,1.046-1.126,1.85-2.655,1.85h-4.585c-.161.241-.322.483-.483.724v.804c.08.402-.241.724-.724.724Zm-2.655-1.609h1.931v-.241c0-.161.08-.402.161-.483.322-.322.563-.724.724-1.126.161-.241.402-.402.724-.402h5.068c.402,0,.724-.08,1.046-.322v-8.849l-7.32-.644c-.161,0-.322-.08-.402-.161-.08-.08-.241-.161-.322-.161h0l-1.528-.483-.08,12.871Z"/><path class="cls-4" d="m64.251,55.161h-6.918v7.722h0v3.861c0,.563.804,1.046,1.85,1.046h5.068v-12.629Z"/><path class="cls-4" d="m88.866,61.596v15.767c-.804.161-1.609,0-2.172-.483l-2.574-2.494v-12.79h4.746Z"/><path class="cls-4" d="m88.866,77.363c.08,0,.241-.08.322-.08l5.792-1.931c.563-.161.885-.563.885-.965h0v-5.47h0v-4.344h-7.079l.08,12.79Z"/><path class="cls-4" d="m72.134,61.596v15.767c.804.161,1.609,0,2.172-.483l2.494-2.494v-12.79h-4.666Z"/><path class="cls-4" d="m84.12,60.711h-7.24v13.675c2.413.322,4.827.322,7.24,0h0v-13.675Z"/><path class="cls-7" d="m80.5,75.352c-1.207,0-2.494-.08-3.7-.241-.402-.08-.724-.402-.724-.804v-13.675c0-.483.322-.804.804-.804h7.24c.483,0,.804.322.804.804v13.675c0,.402-.322.724-.724.804-1.207.161-2.413.241-3.7.241Zm-2.815-1.689c1.85.161,3.781.161,5.631,0v-12.147h-5.631v12.147Z"/><polyline class="cls-4" points="95.864 56.046 95.864 45.427 80.58 45.91 65.136 45.427 65.136 56.046"/><path class="cls-7" d="m95.864,56.85c-.483,0-.804-.322-.804-.804v-9.733l-14.48.402-14.64-.402v9.733c0,.483-.322.804-.804.804s-.804-.322-.804-.804v-10.618c0-.241.08-.402.241-.563.161-.161.402-.241.563-.241l15.445.402,15.284-.402c.241,0,.402.08.563.241s.241.322.241.563v10.618c0,.483-.322.804-.804.804h0Z"/><path class="cls-7" d="m65.136,69.801c-.483,0-.804-.322-.804-.804v-4.344c0-.483.322-.804.804-.804s.804.322.804.804v4.344c0,.402-.322.804-.804.804Z"/><path class="cls-7" d="m95.864,69.801c-.483,0-.804-.322-.804-.804v-4.344c0-.483.322-.804.804-.804s.804.322.804.804v4.344c0,.402-.322.804-.804.804Z"/><path class="cls-2" d="m101.817,52.104h-5.068c-.402-.724-.885-1.368-1.448-1.931-.644-.644-1.368-1.207-2.172-1.689l2.494-2.494c.483-.483.241-1.126-.644-1.448l-5.792-1.931c-.885-.322-1.77-.161-2.494.402l-2.574,2.494c-2.413-.322-4.827-.322-7.24,0l-2.494-2.494c-.724-.563-1.689-.724-2.494-.402l-5.792,1.931c-.885.322-1.207.965-.644,1.448l2.494,2.494c-1.448.885-2.735,2.091-3.62,3.62h-5.068c-1.046,0-1.85.483-1.85,1.046v3.861c0,.563.804,1.046,1.85,1.046h5.068c.402.724.885,1.368,1.448,1.931.644.644,1.368,1.207,2.172,1.689l-2.494,2.494c-.483.483-.241,1.126.644,1.448l5.792,1.931c.885.322,1.77.161,2.494-.402l2.494-2.494c2.413.322,4.827.322,7.24,0l2.494,2.494c.724.563,1.689.724,2.494.402l5.792-1.931c.885-.322,1.207-.965.644-1.448l-2.494-2.494c1.448-.885,2.735-2.091,3.62-3.62h5.068c1.046,0,1.85-.483,1.85-1.046v-3.861c0-.563-.804-1.046-1.77-1.046Zm-17.456,6.838c-3.7,1.207-8.366.483-10.538-1.609-2.172-2.091-.885-4.827,2.815-6.033,3.7-1.207,8.366-.483,10.538,1.609,2.172,2.091.885,4.827-2.815,6.033Z"/><path class="cls-7" d="m88.222,68.595c-.804,0-1.609-.241-2.172-.804l-2.252-2.172c-2.172.241-4.424.241-6.596,0l-2.252,2.252c-.965.804-2.172.965-3.379.563l-5.792-1.931c-.644-.161-1.207-.724-1.448-1.368-.08-.563.08-1.046.483-1.448l1.85-1.85c-.483-.402-.965-.804-1.448-1.207-.483-.483-.965-1.046-1.368-1.689h-4.585c-1.528,0-2.655-.804-2.655-1.85v-3.861c0-1.046,1.126-1.85,2.655-1.85h4.585c.724-1.126,1.689-2.172,2.815-2.896l-1.85-1.931c-.402-.402-.563-.885-.483-1.448.241-.644.724-1.207,1.448-1.368l5.792-1.931c1.126-.402,2.413-.161,3.379.563l2.252,2.252c2.172-.241,4.424-.241,6.596,0l2.252-2.252c.965-.804,2.172-.965,3.379-.563l5.792,1.931c.644.161,1.207.724,1.448,1.368.08.483-.08,1.046-.483,1.448l-1.85,1.85c.483.402.965.804,1.448,1.207.483.483.965,1.046,1.368,1.689h4.585c.563,0,1.207.161,1.689.402.563.241.885.804.965,1.448v3.861c0,1.046-1.126,1.85-2.655,1.85h-4.585c-.724,1.126-1.689,2.172-2.815,2.896l1.85,1.85c.402.402.563.885.483,1.448-.241.644-.724,1.207-1.448,1.368l-5.792,1.931c-.402.161-.804.241-1.207.241Zm-4.103-4.666c.241,0,.402.08.563.241l2.494,2.494c.483.322,1.126.402,1.689.161l5.792-1.931c.08,0,.241-.08.322-.161l-2.494-2.494c-.322-.322-.322-.804,0-1.126q.08-.08.161-.08c1.368-.804,2.494-1.931,3.298-3.298.161-.241.402-.402.724-.402h5.068c.402,0,.724-.08,1.046-.322v-3.781c-.322-.161-.644-.241-1.046-.241h-5.068c-.322,0-.563-.161-.724-.402-.402-.644-.804-1.207-1.368-1.77-.644-.563-1.287-1.126-2.011-1.609-.402-.241-.483-.724-.241-1.126,0-.08.08-.08.08-.161l2.494-2.494c-.08-.08-.241-.161-.322-.161l-5.631-1.931c-.563-.161-1.207-.161-1.689.161l-2.494,2.494c-.161.161-.402.241-.644.241-2.333-.322-4.666-.322-6.998,0-.241,0-.483-.08-.644-.241l-2.494-2.494c-.483-.322-1.126-.402-1.689-.161l-5.792,1.931c-.08,0-.241.08-.322.161l2.494,2.494c.322.322.322.804,0,1.126q-.08.08-.161.08c-1.368.804-2.494,1.931-3.298,3.298-.161.241-.402.402-.724.402h-5.068c-.402,0-.724.08-1.046.322v3.781c.322.161.644.241,1.046.241h5.068c.322,0,.563.161.724.402.402.644.804,1.207,1.368,1.77.644.563,1.287,1.126,2.011,1.609.402.241.483.724.241,1.126,0,.08-.08.08-.08.161l-2.735,2.574c.08.08.241.161.322.161l5.792,1.931c.563.161,1.207.161,1.689-.161l2.494-2.494c.161-.161.402-.241.644-.241,2.333.322,4.666.322,6.998,0,.08-.08.161-.08.161-.08h0Zm-3.62-3.539c-2.896,0-5.631-.885-7.24-2.494-.965-.885-1.448-2.252-1.207-3.539.402-1.689,1.931-3.057,4.344-3.861,4.022-1.368,9.01-.563,11.342,1.85.965.885,1.448,2.252,1.207,3.539-.402,1.689-1.931,3.057-4.344,3.861-1.287.402-2.735.644-4.103.644h0Zm0-8.929c-1.207,0-2.413.161-3.539.563-1.77.563-2.976,1.609-3.218,2.655-.161.804.161,1.528.724,2.091,1.931,1.931,6.355,2.574,9.653,1.448h0c1.77-.563,2.976-1.609,3.218-2.655.161-.804-.161-1.528-.724-2.091-1.287-1.287-3.7-2.011-6.114-2.011h0Z"/><path class="cls-7" d="m76.88,75.191c-.483,0-.804-.322-.804-.804v-9.653c0-.483.322-.804.804-.804s.804.322.804.804v9.653c0,.402-.322.804-.804.804Z"/><path class="cls-7" d="m84.12,75.191c-.483,0-.804-.322-.804-.804v-9.653c0-.483.322-.804.804-.804s.804.322.804.804v9.653c0,.402-.322.804-.804.804Z"/><path class="cls-7" d="m95.864,75.191c-.483,0-.804-.322-.804-.804v-9.733c0-.483.322-.804.804-.804s.804.322.804.804v9.733c0,.483-.322.804-.804.804Z"/><path class="cls-7" d="m88.222,78.248c-.804,0-1.609-.241-2.172-.804l-2.252-2.252c-2.172.241-4.424.241-6.596,0l-2.252,2.252c-.965.804-2.172.965-3.379.563l-5.792-1.931c-.804-.161-1.368-.885-1.448-1.689v-5.148c-.161-.241-.322-.483-.483-.724h-4.585c-1.528,0-2.655-.804-2.655-1.85v-13.434c0-.483.322-.804.804-.804s.804.322.804.804v13.514c.322.161.644.241,1.046.241h5.068c.322,0,.563.161.724.402.241.402.483.724.724,1.126.08.161.161.322.161.483v5.47s.08.08.402.161l5.792,1.931c.563.161,1.207.161,1.689-.161l2.494-2.494c.161-.161.402-.241.644-.241,2.333.322,4.666.322,6.998,0,.241,0,.483.08.644.241l2.494,2.494c.483.322,1.126.402,1.689.161l5.792-1.931c.161,0,.241-.08.402-.241v-5.39c0-.161.08-.402.161-.483.322-.322.563-.724.724-1.126.161-.241.402-.402.724-.402h5.068c.402,0,.724-.08,1.046-.322v-9.573c0-.483.322-.804.804-.804s.804.322.804.804v9.653c0,1.046-1.126,1.85-2.655,1.85h-4.585c-.161.241-.322.483-.483.724v5.148c-.08.804-.644,1.528-1.448,1.689l-5.792,1.931c-.322.08-.724.161-1.126.161Z"/><ellipse class="cls-4" cx="80.5" cy="55.161" rx="7.722" ry="4.424"/><path class="cls-4" d="m80.5,50.656v8.849c1.287,0,2.574-.161,3.861-.563,3.7-1.207,4.907-3.942,2.815-6.033-1.448-1.448-4.022-2.252-6.677-2.252Z"/><path class="cls-7" d="m80.5,60.389c-2.896,0-5.631-.885-7.24-2.494-.965-.885-1.448-2.252-1.207-3.539.402-1.689,1.931-3.057,4.344-3.861,4.022-1.368,9.01-.563,11.342,1.85.965.885,1.448,2.252,1.207,3.539-.402,1.689-1.931,3.057-4.344,3.861-1.287.402-2.735.644-4.103.644Zm0-8.929c-1.207,0-2.413.161-3.539.563-1.77.563-2.976,1.609-3.218,2.655-.161.804.161,1.528.724,2.091,1.931,1.931,6.355,2.574,9.653,1.448h0c1.77-.563,2.976-1.609,3.218-2.655.161-.804-.161-1.528-.724-2.091-1.287-1.287-3.7-2.011-6.114-2.011Z"/><path class="cls-5" d="m72.858,78.248h0c-.322,0-.563,0-.804-.08h0c-.161,0-.322-.08-.402-.08l-5.872-2.011c-.804-.161-1.368-.885-1.448-1.689v-5.148c-.161-.241-.322-.483-.483-.724h-4.585c-1.528,0-2.655-.804-2.655-1.85v-13.434c0-1.046,1.126-1.85,2.655-1.85h4.585c.161-.241.322-.483.483-.644v-5.309c.161-.724.724-1.368,1.448-1.528l5.792-1.931c1.126-.402,2.413-.161,3.379.563l2.252,2.252c2.172-.241,4.424-.241,6.596,0l2.252-2.252c.965-.804,2.172-.965,3.379-.563l5.792,1.931c.724.161,1.287.804,1.448,1.528v5.309c.161.241.322.483.483.724h4.585c1.528,0,2.655.804,2.655,1.85v13.514c0,1.046-1.126,1.85-2.655,1.85h-4.585c-.161.241-.322.483-.483.724v5.148c-.08.804-.644,1.528-1.448,1.689l-5.792,1.931c-.161.08-.241.08-.402.08h0c-.241.08-.483.08-.724.08h-.08c-.241,0-.483,0-.724-.08h-.08c-.241-.08-.402-.161-.644-.241,0,0-.08,0-.08-.08-.241-.08-.402-.241-.563-.402l-2.252-2.252c-2.172.241-4.424.241-6.596,0l-2.252,2.252c-.161.161-.402.322-.563.402,0,0-.08,0-.08.08-.241.08-.402.161-.644.241h-.08c-.322-.08-.563,0-.804,0h0Zm11.262-4.666c.241,0,.402.08.563.241l2.494,2.494q.08.08.161.08c.08.08.241.08.322.161.161,0,.322.08.483.08s.322,0,.483-.08h0c.08,0,.161,0,.161-.08l5.792-1.931c.161,0,.322-.08.402-.241v-5.39c0-.161.08-.402.161-.483.322-.322.563-.724.724-1.126.161-.241.402-.402.724-.402h5.068c.402,0,.724-.08,1.046-.322v-13.434c-.322-.161-.644-.241-1.046-.241h-5.068c-.322,0-.563-.161-.724-.402-.241-.402-.483-.724-.724-1.126-.08-.161-.161-.322-.161-.483v-5.39s-.08-.08-.402-.161l-5.631-2.011c-.563-.161-1.207-.161-1.689.161l-2.494,2.494c-.161.161-.402.241-.644.241-2.333-.322-4.666-.322-6.998,0-.241,0-.483-.08-.644-.241l-2.494-2.494c-.483-.322-1.126-.402-1.689-.161l-5.792,1.931c-.161,0-.241.08-.402.241v5.39c0,.161-.08.402-.161.483-.322.322-.563.724-.724,1.046-.161.241-.402.402-.724.402h-5.068c-.402,0-.724.08-1.046.322v13.434c.322.161.644.241,1.046.241h5.068c.322,0,.563.161.724.402.241.402.483.724.724,1.126.08.161.161.322.161.483v5.47s.08.08.402.161l5.792,1.931c.08,0,.161.08.241.08h.402c.161,0,.322,0,.483-.08.161,0,.241-.08.402-.08.08,0,.161-.08.241-.161l2.494-2.494c.161-.161.402-.241.644-.241,2.333.322,4.666.322,6.998,0-.161.161-.08.161-.08.161Z"/><path class="cls-4" d="m63.205,75.673v-.161c0-.804-1.046-1.368-2.413-1.368h-8.688c-1.368,0-2.413.644-2.413,1.368v.161h-21.8v21.88h0c0,.241.161.483.322.724l4.344,4.344c.965.724,2.172.885,3.298.483l5.711-1.931c2.574,1.287,5.309,2.252,8.125,2.735v3.781c0,.804,1.046,1.368,2.413,1.368h8.688c1.368,0,2.413-.644,2.413-1.368v-3.781c2.815-.483,5.551-1.448,8.125-2.735l5.711,1.931c1.126.402,2.333.161,3.298-.483l4.344-4.344c.161-.161.322-.402.322-.724h0v-21.88h-21.8Z"/><path class="cls-7" d="m60.792,109.861h-8.688c-1.85,0-3.218-.965-3.218-2.172v-3.137c-2.574-.483-5.068-1.368-7.401-2.494l-5.39,1.77c-1.368.483-2.976.241-4.103-.724l-4.344-4.344c-.322-.322-.563-.724-.563-1.207v-21.88c0-.483.322-.804.804-.804h21.156c.402-.885,1.609-1.528,3.057-1.528h8.688c1.528,0,2.655.644,3.057,1.528h21.156c.483,0,.804.322.804.804v21.961c0,.483-.241.885-.563,1.207l-4.344,4.344c-1.126.965-2.735,1.207-4.103.724l-5.39-1.77c-2.333,1.126-4.827,2.011-7.401,2.494v3.137c0,1.126-1.368,2.091-3.218,2.091Zm-19.226-9.492c.161,0,.241,0,.402.08,2.494,1.287,5.148,2.172,7.883,2.655.402.08.644.402.644.804v3.781c0,.161.563.563,1.609.563h8.688c1.046,0,1.609-.483,1.609-.563v-3.781c0-.402.241-.724.644-.804,2.735-.483,5.39-1.368,7.883-2.655.161-.08.402-.08.644-.08l5.711,1.931c.804.322,1.77.161,2.494-.322l4.344-4.344s.08-.08.08-.161v-20.995h-20.995c-.483,0-.804-.322-.804-.804v-.161c0-.161-.563-.563-1.609-.563h-8.688c-1.046,0-1.609.483-1.609.563v.161c0,.483-.322.804-.804.804h-20.995v21.076c0,.08.08.08.08.161l4.344,4.344c.724.483,1.609.644,2.494.322l5.711-1.931c0-.08.08-.08.241-.08Z"/><path class="cls-4" d="m71.33,101.174h0l5.711,1.931c.563.161,1.126.241,1.689.161v-19.95h-7.401v17.858Z"/><path class="cls-4" d="m28.213,98.197l4.344,4.344c.644.483,1.448.724,2.172.724v-27.592h-6.918v21.88h0c.08.241.161.483.402.644Z"/><path class="cls-4" d="m41.566,101.174c2.574,1.287,5.309,2.252,8.125,2.735v-22.926h-8.125v20.191Z"/><path class="cls-7" d="m49.691,104.713h-.161c-2.896-.483-5.711-1.448-8.366-2.815-.241-.161-.402-.402-.402-.724v-20.191c0-.483.322-.804.804-.804h8.125c.483,0,.804.322.804.804v22.846c0,.483-.402.885-.804.885Zm-7.32-4.022c2.091,1.046,4.263,1.77,6.516,2.252v-21.156h-6.516v18.904Z"/><ellipse class="cls-4" cx="56.448" cy="81.465" rx="10.055" ry="5.792"/><path class="cls-5" d="m27.891,95.784c-.483,0-.804-.322-.804-.804v-9.975c0-.483.322-.804.804-.804s.804.322.804.804v10.055c0,.402-.402.724-.804.724Z"/><path class="cls-7" d="m41.566,101.978c-.483,0-.804-.322-.804-.804v-12.549c0-.483.322-.804.804-.804s.804.322.804.804v12.549c0,.402-.402.804-.804.804Z"/><path class="cls-7" d="m49.691,108.494c-.483,0-.804-.322-.804-.804v-12.549c0-.483.322-.804.804-.804s.804.322.804.804v12.549c0,.402-.402.804-.804.804Z"/><path class="cls-7" d="m63.205,108.494c-.483,0-.804-.322-.804-.804v-12.549c0-.483.322-.804.804-.804s.804.322.804.804v12.549c0,.402-.322.804-.804.804Z"/><path class="cls-7" d="m71.33,101.978c-.483,0-.804-.322-.804-.804v-12.549c0-.483.322-.804.804-.804s.804.322.804.804v12.549c0,.402-.322.804-.804.804Z"/><path class="cls-4" d="m46.392,81.465c0,3.218,4.505,5.792,10.055,5.792v-11.584c-5.551,0-10.055,2.574-10.055,5.792Z"/><path class="cls-7" d="m56.448,88.062c-6.033,0-10.86-2.896-10.86-6.596s4.746-6.596,10.86-6.596,10.779,2.896,10.779,6.596-4.746,6.596-10.779,6.596Zm0-11.584c-4.987,0-9.251,2.252-9.251,4.987s4.183,4.987,9.251,4.987,9.17-2.252,9.17-4.987-4.183-4.987-9.17-4.987h0Z"/><path class="cls-7" d="m60.792,109.861h-8.688c-1.85,0-3.218-.965-3.218-2.172v-3.137c-2.574-.483-5.068-1.368-7.401-2.494l-5.39,1.77c-1.368.483-2.976.241-4.103-.724l-4.344-4.344c-.322-.322-.563-.724-.563-1.207v-21.88c0-.483.322-.804.804-.804s.804.322.804.804v21.88c0,.08.08.08.08.161l4.344,4.344c.724.483,1.609.644,2.494.322l5.711-1.931c.241-.08.402-.08.644.08,2.494,1.287,5.148,2.172,7.883,2.655.402.08.644.402.644.804v3.781c0,.161.563.563,1.609.563h8.688c1.046,0,1.609-.483,1.609-.563v-3.781c0-.402.241-.724.644-.804,2.735-.483,5.39-1.368,7.883-2.655.161-.08.402-.08.644-.08l5.711,1.931c.804.322,1.77.161,2.494-.322l4.344-4.344s.08-.08.08-.161v-21.88c0-.483.322-.804.804-.804s.804.322.804.804v21.961c0,.483-.241.885-.563,1.207l-4.344,4.344c-1.126.965-2.735,1.207-4.103.724l-5.39-1.77c-2.333,1.126-4.827,2.011-7.401,2.494v3.137c0,1.126-1.368,2.091-3.218,2.091Z"/><path class="cls-2" d="m83.798,86.05l-5.711-1.931c.644-1.77.644-3.7,0-5.47l5.711-1.931c1.126-.402,1.528-1.207.885-1.931l-4.344-4.344c-.965-.724-2.172-.885-3.298-.483l-5.711,1.931c-2.574-1.287-5.309-2.252-8.125-2.735v-3.781c0-.804-1.046-1.368-2.413-1.368h-8.688c-1.368,0-2.413.644-2.413,1.368v3.781c-2.815.483-5.551,1.448-8.125,2.735l-5.711-1.77c-1.126-.402-2.333-.241-3.298.483l-4.344,4.344c-.644.644-.241,1.528.885,1.931l5.711,1.931c-.644,1.77-.644,3.7,0,5.47l-5.711,1.931c-1.126.402-1.528,1.207-.885,1.931l4.344,4.344c.965.724,2.172.885,3.298.483l5.711-1.931c2.574,1.287,5.309,2.252,8.125,2.735v3.781c0,.804,1.046,1.368,2.413,1.368h8.688c1.368,0,2.413-.644,2.413-1.368v-3.781c2.815-.483,5.551-1.448,8.125-2.735l5.711,1.931c1.126.402,2.333.241,3.298-.483l4.344-4.344c.644-.804.241-1.689-.885-2.091Zm-27.35,1.207c-5.551,0-10.055-2.574-10.055-5.792s4.505-5.792,10.055-5.792,9.975,2.574,9.975,5.792-4.424,5.792-9.975,5.792Z"/><path class="cls-7" d="m60.792,99.645h-8.688c-1.85,0-3.218-.965-3.218-2.172v-3.137c-2.574-.483-5.068-1.368-7.401-2.494l-5.39,1.77c-1.368.483-2.976.241-4.103-.724l-4.344-4.344c-.483-.402-.644-1.046-.483-1.609.241-.804.885-1.368,1.689-1.609l4.907-1.609c-.402-1.448-.402-2.976,0-4.424l-4.907-1.609c-.804-.161-1.448-.804-1.689-1.609-.161-.563.08-1.207.483-1.609l4.344-4.344c1.126-.965,2.735-1.207,4.103-.724l5.39,1.77c2.333-1.126,4.827-2.011,7.401-2.494v-3.137c0-1.287,1.368-2.172,3.218-2.172h8.688c1.85,0,3.218.965,3.218,2.172v3.137c2.574.483,5.068,1.368,7.401,2.494l5.39-1.77c1.368-.483,2.976-.241,4.103.724l4.344,4.344c.483.402.644,1.046.483,1.609-.241.804-.885,1.368-1.689,1.609l-4.907,1.609c.402,1.448.402,2.976,0,4.424l4.907,1.609c.804.161,1.448.804,1.689,1.609.161.563-.08,1.207-.483,1.609l-4.344,4.344c-1.126.965-2.735,1.207-4.103.724l-5.39-1.77c-2.333,1.126-4.827,2.011-7.401,2.494v3.137c0,1.207-1.368,2.172-3.218,2.172Zm-19.226-9.492c.161,0,.241,0,.402.08,2.494,1.287,5.148,2.172,7.883,2.655.402.08.644.402.644.804v3.781c0,.161.563.563,1.609.563h8.688c1.046,0,1.609-.483,1.609-.563v-3.781c0-.402.241-.724.644-.804,2.735-.483,5.39-1.368,7.883-2.655.161-.08.402-.08.644-.08l5.711,1.931c.804.322,1.77.161,2.494-.322l4.344-4.344s.08-.08.08-.161c0,0-.161-.241-.644-.402h0l-5.711-1.931c-.402-.161-.644-.563-.483-1.046h0c.563-1.528.563-3.298,0-4.827-.161-.402.08-.885.483-1.046h0l5.711-1.931c.563-.161.644-.402.644-.402,0-.08-.08-.08-.08-.161l-4.344-4.344c-.724-.483-1.609-.563-2.494-.322l-5.711,1.931c-.241.08-.402.08-.644-.08-2.494-1.287-5.148-2.172-7.883-2.655-.402-.08-.644-.402-.644-.804v-3.781c0-.161-.563-.563-1.609-.563h-8.688c-1.046,0-1.609.483-1.609.563v3.781c0,.402-.241.724-.644.804-2.735.483-5.39,1.368-7.883,2.655-.161.08-.402.08-.644.08l-5.711-1.931c-.804-.322-1.77-.161-2.494.322l-4.344,4.344s-.08.08-.08.161c0,0,.161.241.644.402l5.711,1.931c.402.161.644.563.483,1.046h0c-.563,1.528-.563,3.298,0,4.827.161.402-.08.885-.483,1.046h0l-5.711,1.931c-.483.161-.644.402-.644.402,0,.08.08.08.08.161l4.344,4.344c.724.483,1.609.563,2.494.322l5.711-1.931h.241Zm14.882-2.091c-6.033,0-10.86-2.896-10.86-6.596s4.746-6.596,10.86-6.596,10.779,2.896,10.779,6.596-4.746,6.596-10.779,6.596Zm0-11.584c-4.987,0-9.251,2.252-9.251,4.987s4.183,4.987,9.251,4.987,9.17-2.252,9.17-4.987-4.183-4.987-9.17-4.987h0Z"/><path class="cls-5" d="m60.792,109.861h-8.688c-1.85,0-3.218-.965-3.218-2.172v-3.137c-2.574-.483-5.068-1.368-7.401-2.494l-5.39,1.77c-.402.161-.804.161-1.207.241h-.885c-.241,0-.483-.08-.644-.161h-.08c-.161-.08-.322-.161-.483-.241-.08,0-.08-.08-.161-.08-.161-.08-.402-.241-.563-.402l-4.344-4.344c-.322-.322-.563-.724-.563-1.207v-22.122c.08-.402.241-.804.563-1.126l4.344-4.344c1.126-.965,2.735-1.207,4.103-.724l5.39,1.77c2.333-1.126,4.827-2.011,7.401-2.494v-3.137c0-1.287,1.368-2.172,3.218-2.172h8.607c1.85,0,3.218.965,3.218,2.172v3.137c2.574.483,5.068,1.368,7.401,2.494l5.39-1.77c1.368-.483,2.976-.241,4.103.724l4.344,4.344c.322.322.483.644.563,1.046v22.122c0,.483-.241.885-.563,1.207l-4.344,4.344c-.563.483-1.207.804-2.011.885h-.724l-.08-.804v.804h-.483v-.804l-.08.804h-.161c-.161,0-.322-.08-.563-.161l-5.39-1.77c-2.333,1.126-4.827,2.011-7.401,2.494v3.137c0,1.207-1.368,2.172-3.218,2.172Zm-19.226-9.492c.161,0,.241,0,.402.08,2.494,1.287,5.148,2.172,7.883,2.655.402.08.644.402.644.804v3.781c0,.161.563.563,1.609.563h8.688c1.046,0,1.609-.483,1.609-.563v-3.781c0-.402.241-.724.644-.804,2.735-.483,5.39-1.368,7.883-2.655.161-.08.402-.08.644-.08l5.711,1.931c.08,0,.241.08.322.08h.965c.402,0,.804-.161,1.126-.402l4.344-4.344s.08-.08.08-.161v-21.88c0-.08-.08-.08-.08-.161l-4.344-4.344c-.724-.483-1.609-.563-2.494-.322l-5.711,1.931c-.241.08-.402.08-.644-.08-2.494-1.287-5.148-2.172-7.883-2.655-.402-.08-.644-.402-.644-.804v-3.781c0-.161-.563-.563-1.609-.563h-8.607c-1.046,0-1.609.483-1.609.563v3.781c0,.402-.241.724-.644.804-2.735.483-5.39,1.368-7.883,2.655-.161.08-.402.08-.644.08l-5.711-1.931c-.804-.322-1.77-.161-2.494.322l-4.344,4.344s-.08.08-.08.161v21.88c0,.08.08.08.08.161l4.344,4.344c.08.08.161.08.241.161l.08.08c.08.08.161.08.241.08h.08c.161,0,.241.08.402.08h.483c.322,0,.563-.08.885-.161l5.711-1.931c.08.08.161.08.322.08Z"/><rect class="cls-1" x="12.526" y="12.526" width="101.357" height="101.357"/></svg>